<svg xmlns="http://www.w3.org/2000/svg" xmlns:xlink="http://www.w3.org/1999/xlink" contentStyleType="text/css" data-diagram-type="DESCRIPTION" height="1494px" preserveAspectRatio="none" style="width:1109px;height:1494px;background:#FFFFFF;" version="1.1" viewBox="0 0 1109 1494" width="1109px" zoomAndPan="magnify"><title>Tastyworks Tax Calculator - Architecture Overview</title><defs/><g><g class="title" data-source-line="12"><text fill="#000000" font-family="sans-serif" font-size="14" font-weight="bold" lengthAdjust="spacing" textLength="353.7926" x="370.6037" y="24.9659">Tastyworks Tax Calculator - Architecture Overview</text></g><!--cluster Entry Point--><g class="cluster" data-entity="Entry Point" data-source-line="14" data-uid="ent0002" id="cluster_Entry Point"><path d="M482.5,46.6699 L561.5777,46.6699 A3.75,3.75 0 0 1 564.0777,49.1699 L571.0777,71.7378 L892.5,71.7378 A2.5,2.5 0 0 1 895,74.2378 L895,179.1699 A2.5,2.5 0 0 1 892.5,181.6699 L482.5,181.6699 A2.5,2.5 0 0 1 480,179.1699 L480,49.1699 A2.5,2.5 0 0 1 482.5,46.6699" fill="none" style="stroke:#000000;stroke-width:1.5;"/><line style="stroke:#000000;stroke-width:1.5;" x1="480" x2="571.0777" y1="71.7378" y2="71.7378"/><text fill="#000000" font-family="sans-serif" font-size="14" font-weight="bold" lengthAdjust="spacing" textLength="78.0777" x="484" y="63.6358">Entry Point</text></g><!--cluster Transaction Processing--><g class="cluster" data-entity="Transaction Processing" data-source-line="24" data-uid="ent0007" id="cluster_Transaction Processing"><path d="M8.5,232.6699 L171.6054,232.6699 A3.75,3.75 0 0 1 174.1054,235.1699 L181.1054,257.7378 L537.5,257.7378 A2.5,2.5 0 0 1 540,260.2378 L540,383.1699 A2.5,2.5 0 0 1 537.5,385.6699 L8.5,385.6699 A2.5,2.5 0 0 1 6,383.1699 L6,235.1699 A2.5,2.5 0 0 1 8.5,232.6699" fill="none" style="stroke:#000000;stroke-width:1.5;"/><line style="stroke:#000000;stroke-width:1.5;" x1="6" x2="181.1054" y1="257.7378" y2="257.7378"/><text fill="#000000" font-family="sans-serif" font-size="14" font-weight="bold" lengthAdjust="spacing" textLength="162.1054" x="10" y="249.6358">Transaction Processing</text></g><!--cluster Portfolio Management--><g class="cluster" data-entity="Portfolio Management" data-source-line="35" data-uid="ent0012" id="cluster_Portfolio Management"><path d="M718.5,436.6699 L878.0634,436.6699 A3.75,3.75 0 0 1 880.5634,439.1699 L887.5634,461.7378 L1099.5,461.7378 A2.5,2.5 0 0 1 1102,464.2378 L1102,741.6699 A2.5,2.5 0 0 1 1099.5,744.1699 L718.5,744.1699 A2.5,2.5 0 0 1 716,741.6699 L716,439.1699 A2.5,2.5 0 0 1 718.5,436.6699" fill="none" style="stroke:#000000;stroke-width:1.5;"/><line style="stroke:#000000;stroke-width:1.5;" x1="716" x2="887.5634" y1="461.7378" y2="461.7378"/><text fill="#000000" font-family="sans-serif" font-size="14" font-weight="bold" lengthAdjust="spacing" textLength="158.5634" x="720" y="453.6358">Portfolio Management</text></g><!--cluster Fiscal Year Management--><g class="cluster" data-entity="Fiscal Year Management" data-source-line="49" data-uid="ent0019" id="cluster_Fiscal Year Management"><path d="M328.5,819.6699 L501.1813,819.6699 A3.75,3.75 0 0 1 503.6813,822.1699 L510.6813,844.7378 L919.5,844.7378 A2.5,2.5 0 0 1 922,847.2378 L922,1080.1699 A2.5,2.5 0 0 1 919.5,1082.6699 L328.5,1082.6699 A2.5,2.5 0 0 1 326,1080.1699 L326,822.1699 A2.5,2.5 0 0 1 328.5,819.6699" fill="none" style="stroke:#000000;stroke-width:1.5;"/><line style="stroke:#000000;stroke-width:1.5;" x1="326" x2="510.6813" y1="844.7378" y2="844.7378"/><text fill="#000000" font-family="sans-serif" font-size="14" font-weight="bold" lengthAdjust="spacing" textLength="171.6813" x="330" y="836.6358">Fiscal Year Management</text></g><!--cluster Currency Conversion--><g class="cluster" data-entity="Currency Conversion" data-source-line="67" data-uid="ent0029" id="cluster_Currency Conversion"><path d="M279.5,1133.6699 L426.0715,1133.6699 A3.75,3.75 0 0 1 428.5715,1136.1699 L435.5715,1158.7378 L717.5,1158.7378 A2.5,2.5 0 0 1 720,1161.2378 L720,1362.1699 A2.5,2.5 0 0 1 717.5,1364.6699 L279.5,1364.6699 A2.5,2.5 0 0 1 277,1362.1699 L277,1136.1699 A2.5,2.5 0 0 1 279.5,1133.6699" fill="none" style="stroke:#000000;stroke-width:1.5;"/><line style="stroke:#000000;stroke-width:1.5;" x1="277" x2="435.5715" y1="1158.7378" y2="1158.7378"/><text fill="#000000" font-family="sans-serif" font-size="14" font-weight="bold" lengthAdjust="spacing" textLength="145.5715" x="281" y="1150.6358">Currency Conversion</text></g><!--entity runner--><g class="entity" data-entity="runner" data-source-line="15" data-uid="ent0003" id="entity_runner"><rect fill="#ADD8E6" height="49.0679" rx="2.5" ry="2.5" style="stroke:#000000;stroke-width:0.5;" width="162.0935" x="496" y="100.6699"/><rect fill="#ADD8E6" height="10" style="stroke:#000000;stroke-width:0.5;" width="15" x="638.0935" y="105.6699"/><rect fill="#ADD8E6" height="2" style="stroke:#000000;stroke-width:0.5;" width="4" x="636.0935" y="107.6699"/><rect fill="#ADD8E6" height="2" style="stroke:#000000;stroke-width:0.5;" width="4" x="636.0935" y="111.6699"/><text fill="#000000" font-family="sans-serif" font-size="14" lengthAdjust="spacing" textLength="122.0935" x="511" y="135.6358">ApplicationRunner</text></g><g class="entity" data-entity="GMN4" data-source-line="17" data-uid="ent0005" id="entity_GMN4"><path d="M693,84.6699 L693,121.1699 L658.23,125.1699 L693,129.1699 L693,165.494 A0,0 0 0 0 693,165.494 L878.6711,165.494 A0,0 0 0 0 878.6711,165.494 L878.6711,94.6699 L868.6711,84.6699 L693,84.6699 A0,0 0 0 0 693,84.6699" fill="#FEFFDD" style="stroke:#181818;stroke-width:0.5;"/><path d="M868.6711,84.6699 L868.6711,94.6699 L878.6711,94.6699 L868.6711,84.6699" fill="#FEFFDD" style="stroke:#181818;stroke-width:0.5;"/><text fill="#000000" font-family="sans-serif" font-size="13" lengthAdjust="spacing" textLength="164.6711" x="699" y="103.5669">Coordinates the main flow:</text><text fill="#000000" font-family="sans-serif" font-size="13" lengthAdjust="spacing" textLength="105.8851" x="699" y="121.2729">1. Reads CSV files</text><text fill="#000000" font-family="sans-serif" font-size="13" lengthAdjust="spacing" textLength="116.3241" x="699" y="138.9789">2. Publishes events</text><text fill="#000000" font-family="sans-serif" font-size="13" lengthAdjust="spacing" textLength="98.0721" x="699" y="156.685">3. Prints reports</text></g><!--entity csvReader--><g class="entity" data-entity="csvReader" data-source-line="25" data-uid="ent0008" id="entity_csvReader"><rect fill="#ADD8E6" height="49.0679" rx="2.5" ry="2.5" style="stroke:#000000;stroke-width:0.5;" width="186.5514" x="21.5" y="295.6699"/><rect fill="#ADD8E6" height="10" style="stroke:#000000;stroke-width:0.5;" width="15" x="188.0514" y="300.6699"/><rect fill="#ADD8E6" height="2" style="stroke:#000000;stroke-width:0.5;" width="4" x="186.0514" y="302.6699"/><rect fill="#ADD8E6" height="2" style="stroke:#000000;stroke-width:0.5;" width="4" x="186.0514" y="306.6699"/><text fill="#000000" font-family="sans-serif" font-size="14" lengthAdjust="spacing" textLength="146.5514" x="36.5" y="330.6358">TransactionCsvReader</text></g><g class="entity" data-entity="GMN9" data-source-line="27" data-uid="ent0010" id="entity_GMN9"><path d="M244,270.6699 L244,316.1699 L208.52,320.1699 L244,324.1699 L244,369.2 A0,0 0 0 0 244,369.2 L523.7653,369.2 A0,0 0 0 0 523.7653,369.2 L523.7653,280.6699 L513.7653,270.6699 L244,270.6699 A0,0 0 0 0 244,270.6699" fill="#FEFFDD" style="stroke:#181818;stroke-width:0.5;"/><path d="M513.7653,270.6699 L513.7653,280.6699 L523.7653,280.6699 L513.7653,270.6699" fill="#FEFFDD" style="stroke:#181818;stroke-width:0.5;"/><text fill="#000000" font-family="sans-serif" font-size="13" lengthAdjust="spacing" textLength="170.5211" x="250" y="289.5669">Parses Tastyworks CSV files:</text><text fill="#000000" font-family="sans-serif" font-size="13" lengthAdjust="spacing" textLength="156.3772" x="250" y="307.2729">- Option trades (STO/BTC)</text><text fill="#000000" font-family="sans-serif" font-size="13" lengthAdjust="spacing" textLength="258.7653" x="250" y="324.9789">- Option removals (expiration/assignment)</text><text fill="#000000" font-family="sans-serif" font-size="13" lengthAdjust="spacing" textLength="147.1602" x="250" y="342.685">- Stock trades (BTO/STC)</text><text fill="#000000" font-family="sans-serif" font-size="13" lengthAdjust="spacing" textLength="91.0781" x="250" y="360.391">- Reverse splits</text></g><!--entity portfolio--><g class="entity" data-entity="portfolio" data-source-line="36" data-uid="ent0013" id="entity_portfolio"><rect fill="#ADD8E6" height="49.0679" rx="2.5" ry="2.5" style="stroke:#000000;stroke-width:0.5;" width="96.7558" x="731.5" y="499.6699"/><rect fill="#ADD8E6" height="10" style="stroke:#000000;stroke-width:0.5;" width="15" x="808.2558" y="504.6699"/><rect fill="#ADD8E6" height="2" style="stroke:#000000;stroke-width:0.5;" width="4" x="806.2558" y="506.6699"/><rect fill="#ADD8E6" height="2" style="stroke:#000000;stroke-width:0.5;" width="4" x="806.2558" y="510.6699"/><text fill="#000000" font-family="sans-serif" font-size="14" lengthAdjust="spacing" textLength="56.7558" x="746.5" y="534.6358">Portfolio</text></g><!--entity optionPos--><g class="entity" data-entity="optionPos" data-source-line="37" data-uid="ent0014" id="entity_optionPos"><rect fill="#ADD8E6" height="49.0679" rx="2.5" ry="2.5" style="stroke:#000000;stroke-width:0.5;" width="174.0215" x="733" y="679.1699"/><rect fill="#ADD8E6" height="10" style="stroke:#000000;stroke-width:0.5;" width="15" x="887.0215" y="684.1699"/><rect fill="#ADD8E6" height="2" style="stroke:#000000;stroke-width:0.5;" width="4" x="885.0215" y="686.1699"/><rect fill="#ADD8E6" height="2" style="stroke:#000000;stroke-width:0.5;" width="4" x="885.0215" y="690.1699"/><text fill="#000000" font-family="sans-serif" font-size="14" lengthAdjust="spacing" textLength="134.0215" x="748" y="714.1358">OptionShortPosition</text></g><!--entity stockPos--><g class="entity" data-entity="stockPos" data-source-line="38" data-uid="ent0015" id="entity_stockPos"><rect fill="#ADD8E6" height="49.0679" rx="2.5" ry="2.5" style="stroke:#000000;stroke-width:0.5;" width="128.4517" x="942" y="679.1699"/><rect fill="#ADD8E6" height="10" style="stroke:#000000;stroke-width:0.5;" width="15" x="1050.4517" y="684.1699"/><rect fill="#ADD8E6" height="2" style="stroke:#000000;stroke-width:0.5;" width="4" x="1048.4517" y="686.1699"/><rect fill="#ADD8E6" height="2" style="stroke:#000000;stroke-width:0.5;" width="4" x="1048.4517" y="690.1699"/><text fill="#000000" font-family="sans-serif" font-size="14" lengthAdjust="spacing" textLength="88.4517" x="957" y="714.1358">StockPosition</text></g><g class="entity" data-entity="GMN16" data-source-line="41" data-uid="ent0017" id="entity_GMN16"><path d="M864,474.6699 L864,520.1699 L828.75,524.1699 L864,528.1699 L864,573.2 A0,0 0 0 0 864,573.2 L1085.9932,573.2 A0,0 0 0 0 1085.9932,573.2 L1085.9932,484.6699 L1075.9932,474.6699 L864,474.6699 A0,0 0 0 0 864,474.6699" fill="#FEFFDD" style="stroke:#181818;stroke-width:0.5;"/><path d="M1075.9932,474.6699 L1075.9932,484.6699 L1085.9932,484.6699 L1075.9932,474.6699" fill="#FEFFDD" style="stroke:#181818;stroke-width:0.5;"/><text fill="#000000" font-family="sans-serif" font-size="13" lengthAdjust="spacing" textLength="186.3162" x="870" y="493.5669">Event-driven position tracking:</text><text fill="#000000" font-family="sans-serif" font-size="13" lengthAdjust="spacing" textLength="200.9932" x="870" y="511.2729">- FIFO queue for option positions</text><text fill="#000000" font-family="sans-serif" font-size="13" lengthAdjust="spacing" textLength="193.1542" x="870" y="528.9789">- FIFO queue for stock positions</text><text fill="#000000" font-family="sans-serif" font-size="13" lengthAdjust="spacing" textLength="140.7901" x="870" y="546.685">- Handles partial closes</text><text fill="#000000" font-family="sans-serif" font-size="13" lengthAdjust="spacing" textLength="162.3572" x="870" y="564.391">- Publishes position events</text></g><!--entity fiscalMgr--><g class="entity" data-entity="fiscalMgr" data-source-line="50" data-uid="ent0020" id="entity_fiscalMgr"><rect fill="#ADD8E6" height="49.0679" rx="2.5" ry="2.5" style="stroke:#000000;stroke-width:0.5;" width="164.5715" x="530.5" y="857.6699"/><rect fill="#ADD8E6" height="10" style="stroke:#000000;stroke-width:0.5;" width="15" x="675.0715" y="862.6699"/><rect fill="#ADD8E6" height="2" style="stroke:#000000;stroke-width:0.5;" width="4" x="673.0715" y="864.6699"/><rect fill="#ADD8E6" height="2" style="stroke:#000000;stroke-width:0.5;" width="4" x="673.0715" y="868.6699"/><text fill="#000000" font-family="sans-serif" font-size="14" lengthAdjust="spacing" textLength="124.5715" x="545.5" y="892.6358">FiscalYearManager</text></g><!--entity fiscalYear--><g class="entity" data-entity="fiscalYear" data-source-line="51" data-uid="ent0021" id="entity_fiscalYear"><rect fill="#ADD8E6" height="49.0679" rx="2.5" ry="2.5" style="stroke:#000000;stroke-width:0.5;" width="105.2258" x="342.5" y="1001.6699"/><rect fill="#ADD8E6" height="10" style="stroke:#000000;stroke-width:0.5;" width="15" x="427.7258" y="1006.6699"/><rect fill="#ADD8E6" height="2" style="stroke:#000000;stroke-width:0.5;" width="4" x="425.7258" y="1008.6699"/><rect fill="#ADD8E6" height="2" style="stroke:#000000;stroke-width:0.5;" width="4" x="425.7258" y="1012.6699"/><text fill="#000000" font-family="sans-serif" font-size="14" lengthAdjust="spacing" textLength="65.2258" x="357.5" y="1036.6358">FiscalYear</text></g><!--entity fiscalRepo--><g class="entity" data-entity="fiscalRepo" data-source-line="52" data-uid="ent0022" id="entity_fiscalRepo"><rect fill="#ADD8E6" height="49.0679" rx="2.5" ry="2.5" style="stroke:#000000;stroke-width:0.5;" width="175.6735" x="730" y="1001.6699"/><rect fill="#ADD8E6" height="10" style="stroke:#000000;stroke-width:0.5;" width="15" x="885.6735" y="1006.6699"/><rect fill="#ADD8E6" height="2" style="stroke:#000000;stroke-width:0.5;" width="4" x="883.6735" y="1008.6699"/><rect fill="#ADD8E6" height="2" style="stroke:#000000;stroke-width:0.5;" width="4" x="883.6735" y="1012.6699"/><text fill="#000000" font-family="sans-serif" font-size="14" lengthAdjust="spacing" textLength="135.6735" x="745" y="1036.6358">FiscalYearRepository</text></g><g class="entity" data-entity="GMN23" data-source-line="55" data-uid="ent0024" id="entity_GMN23"><path d="M730.5,859.6699 L730.5,878.1699 L695.88,882.1699 L730.5,886.1699 L730.5,905.0819 A0,0 0 0 0 730.5,905.0819 L905.0691,905.0819 A0,0 0 0 0 905.0691,905.0819 L905.0691,869.6699 L895.0691,859.6699 L730.5,859.6699 A0,0 0 0 0 730.5,859.6699" fill="#FEFFDD" style="stroke:#181818;stroke-width:0.5;"/><path d="M895.0691,859.6699 L895.0691,869.6699 L905.0691,869.6699 L895.0691,859.6699" fill="#FEFFDD" style="stroke:#181818;stroke-width:0.5;"/><text fill="#000000" font-family="sans-serif" font-size="13" lengthAdjust="spacing" textLength="153.5691" x="736.5" y="878.5669">Manages tax calculations</text><text fill="#000000" font-family="sans-serif" font-size="13" lengthAdjust="spacing" textLength="109.7721" x="736.5" y="896.2729">across fiscal years</text></g><g class="entity" data-entity="GMN26" data-source-line="60" data-uid="ent0027" id="entity_GMN26"><path d="M483,985.6699 L483,1022.1699 L447.67,1026.1699 L483,1030.1699 L483,1066.494 A0,0 0 0 0 483,1066.494 L694.6192,1066.494 A0,0 0 0 0 694.6192,1066.494 L694.6192,995.6699 L684.6192,985.6699 L483,985.6699 A0,0 0 0 0 483,985.6699" fill="#FEFFDD" style="stroke:#181818;stroke-width:0.5;"/><path d="M684.6192,985.6699 L684.6192,995.6699 L694.6192,995.6699 L684.6192,985.6699" fill="#FEFFDD" style="stroke:#181818;stroke-width:0.5;"/><text fill="#000000" font-family="sans-serif" font-size="13" lengthAdjust="spacing" textLength="147.1731" x="489" y="1004.5669">Calculates P&amp;L per year:</text><text fill="#000000" font-family="sans-serif" font-size="13" lengthAdjust="spacing" textLength="190.6192" x="489" y="1022.2729">- Separate option profits/losses</text><text fill="#000000" font-family="sans-serif" font-size="13" lengthAdjust="spacing" textLength="83.7981" x="489" y="1039.9789">- Stock profits</text><text fill="#000000" font-family="sans-serif" font-size="13" lengthAdjust="spacing" textLength="113.1521" x="489" y="1057.685">- German tax rules</text></g><!--entity exchange--><g class="entity" data-entity="exchange" data-source-line="68" data-uid="ent0030" id="entity_exchange"><rect fill="#ADD8E6" height="49.0679" rx="2.5" ry="2.5" style="stroke:#000000;stroke-width:0.5;" width="163.0455" x="313.5" y="1171.6699"/><rect fill="#ADD8E6" height="10" style="stroke:#000000;stroke-width:0.5;" width="15" x="456.5455" y="1176.6699"/><rect fill="#ADD8E6" height="2" style="stroke:#000000;stroke-width:0.5;" width="4" x="454.5455" y="1178.6699"/><rect fill="#ADD8E6" height="2" style="stroke:#000000;stroke-width:0.5;" width="4" x="454.5455" y="1182.6699"/><text fill="#000000" font-family="sans-serif" font-size="14" lengthAdjust="spacing" textLength="123.0455" x="328.5" y="1206.6358">CurrencyExchange</text></g><!--entity rateRepo--><g class="entity" data-entity="rateRepo" data-source-line="69" data-uid="ent0031" id="entity_rateRepo"><rect fill="#ADD8E6" height="49.0679" rx="2.5" ry="2.5" style="stroke:#000000;stroke-width:0.5;" width="203.5334" x="293" y="1299.6699"/><rect fill="#ADD8E6" height="10" style="stroke:#000000;stroke-width:0.5;" width="15" x="476.5334" y="1304.6699"/><rect fill="#ADD8E6" height="2" style="stroke:#000000;stroke-width:0.5;" width="4" x="474.5334" y="1306.6699"/><rect fill="#ADD8E6" height="2" style="stroke:#000000;stroke-width:0.5;" width="4" x="474.5334" y="1310.6699"/><text fill="#000000" font-family="sans-serif" font-size="14" lengthAdjust="spacing" textLength="163.5334" x="308" y="1334.6358">ExchangeRateRepository</text></g><g class="entity" data-entity="GMN32" data-source-line="72" data-uid="ent0033" id="entity_GMN32"><path d="M532.5,1301.6699 L532.5,1320.1699 L497.35,1324.1699 L532.5,1328.1699 L532.5,1347.0819 A0,0 0 0 0 532.5,1347.0819 L703.3511,1347.0819 A0,0 0 0 0 703.3511,1347.0819 L703.3511,1311.6699 L693.3511,1301.6699 L532.5,1301.6699 A0,0 0 0 0 532.5,1301.6699" fill="#FEFFDD" style="stroke:#181818;stroke-width:0.5;"/><path d="M693.3511,1301.6699 L693.3511,1311.6699 L703.3511,1311.6699 L693.3511,1301.6699" fill="#FEFFDD" style="stroke:#181818;stroke-width:0.5;"/><text fill="#000000" font-family="sans-serif" font-size="13" lengthAdjust="spacing" textLength="122.6291" x="538.5" y="1320.5669">Loads ECB historical</text><text fill="#000000" font-family="sans-serif" font-size="13" lengthAdjust="spacing" textLength="149.8511" x="538.5" y="1338.2729">EUR/USD rates from CSV</text></g><!--entity newTxEvent--><g class="entity" data-entity="newTxEvent" data-source-line="77" data-uid="ent0035" id="entity_newTxEvent"><ellipse cx="735" cy="320.1699" fill="#F1F1F1" rx="8" ry="8" style="stroke:#181818;stroke-width:0.5;"/><text fill="#000000" font-family="sans-serif" font-size="14" lengthAdjust="spacing" textLength="106.6796" x="681.6602" y="352.1358">NewTransaction</text><text fill="#000000" font-family="sans-serif" font-size="14" lengthAdjust="spacing" textLength="36.4978" x="681.6602" y="371.2038">Event</text></g><!--entity positionEvents--><g class="entity" data-entity="positionEvents" data-source-line="78" data-uid="ent0036" id="entity_positionEvents"><ellipse cx="664" cy="703.6699" fill="#F1F1F1" rx="8" ry="8" style="stroke:#181818;stroke-width:0.5;"/><text fill="#000000" font-family="sans-serif" font-size="14" lengthAdjust="spacing" textLength="53.0458" x="637.4771" y="735.6358">Position</text><text fill="#000000" font-family="sans-serif" font-size="14" lengthAdjust="spacing" textLength="43.2038" x="637.4771" y="754.7038">Events</text></g><!--entity txCsv--><g class="entity" data-entity="txCsv" data-source-line="80" data-uid="ent0037" id="entity_txCsv"><path d="M49,510.1699 C49,500.1699 115.2098,500.1699 115.2098,500.1699 C115.2098,500.1699 181.4196,500.1699 181.4196,510.1699 L181.4196,538.2378 C181.4196,548.2378 115.2098,548.2378 115.2098,548.2378 C115.2098,548.2378 49,548.2378 49,538.2378 L49,510.1699" fill="#F1F1F1" style="stroke:#181818;stroke-width:0.5;"/><path d="M49,510.1699 C49,520.1699 115.2098,520.1699 115.2098,520.1699 C115.2098,520.1699 181.4196,520.1699 181.4196,510.1699" fill="none" style="stroke:#181818;stroke-width:0.5;"/><text fill="#000000" font-family="sans-serif" font-size="14" lengthAdjust="spacing" textLength="112.4196" x="59" y="539.1358">Transaction CSVs</text></g><!--entity rateCsv--><g class="entity" data-entity="rateCsv" data-source-line="81" data-uid="ent0038" id="entity_rateCsv"><path d="M319,1439.6699 C319,1429.6699 395.0027,1429.6699 395.0027,1429.6699 C395.0027,1429.6699 471.0055,1429.6699 471.0055,1439.6699 L471.0055,1467.7378 C471.0055,1477.7378 395.0027,1477.7378 395.0027,1477.7378 C395.0027,1477.7378 319,1477.7378 319,1467.7378 L319,1439.6699" fill="#F1F1F1" style="stroke:#181818;stroke-width:0.5;"/><path d="M319,1439.6699 C319,1449.6699 395.0027,1449.6699 395.0027,1449.6699 C395.0027,1449.6699 471.0055,1449.6699 471.0055,1439.6699" fill="none" style="stroke:#181818;stroke-width:0.5;"/><text fill="#000000" font-family="sans-serif" font-size="14" lengthAdjust="spacing" textLength="132.0055" x="329" y="1468.6358">Exchange Rates CSV</text></g><!--link runner to csvReader--><g class="link" data-entity-1="runner" data-entity-2="csvReader" data-source-line="84" data-uid="lnk39" id="link_runner_csvReader"><path d="M495.92,138.6599 C422.28,152.3399 312.31,178.6999 226,224.6699 C191.38,243.1099 162.1893,269.5844 141.2293,290.9744" fill="none" id="runner-to-csvReader" style="stroke:#181818;stroke-width:1;"/><polygon fill="#181818" points="137.03,295.2599,146.186,291.6312,140.5295,291.6887,140.472,286.0321,137.03,295.2599" style="stroke:#181818;stroke-width:1;"/><text fill="#000000" font-family="sans-serif" font-size="13" lengthAdjust="spacing" textLength="112.9181" x="281" y="212.5669">reads transactions</text></g><!--link csvReader to txCsv--><g class="link" data-entity-1="csvReader" data-entity-2="txCsv" data-source-line="85" data-uid="lnk40" id="link_csvReader_txCsv"><path d="M115,344.7399 C115,383.7599 115,455.3399 115,494.0599" fill="none" id="csvReader-to-txCsv" style="stroke:#181818;stroke-width:1;"/><polygon fill="#181818" points="115,500.0599,119,491.0599,115,495.0599,111,491.0599,115,500.0599" style="stroke:#181818;stroke-width:1;"/><text fill="#000000" font-family="sans-serif" font-size="13" lengthAdjust="spacing" textLength="40.443" x="116" y="416.5669">parses</text></g><!--link runner to newTxEvent--><g class="link" data-entity-1="runner" data-entity-2="newTxEvent" data-source-line="86" data-uid="lnk41" id="link_runner_newTxEvent"><path d="M596.37,149.8399 C631.81,193.1199 701.6986,278.4978 724.3986,306.2178" fill="none" id="runner-to-newTxEvent" style="stroke:#181818;stroke-width:1;"/><polygon fill="#181818" points="728.2,310.8599,725.5926,301.3625,725.0321,306.9915,719.4031,306.431,728.2,310.8599" style="stroke:#181818;stroke-width:1;"/><text fill="#000000" font-family="sans-serif" font-size="13" lengthAdjust="spacing" textLength="58.5521" x="647" y="212.5669">publishes</text></g><!--link newTxEvent to portfolio--><g class="link" data-entity-1="newTxEvent" data-entity-2="portfolio" data-source-line="89" data-uid="lnk42" id="link_newTxEvent_portfolio"><path d="M736.82,329.3399 C743.2,357.9799 763.4059,448.6633 773.4459,493.7533" fill="none" id="newTxEvent-to-portfolio" style="stroke:#181818;stroke-width:1;"/><polygon fill="#181818" points="774.75,499.6099,776.6983,489.9557,773.6633,494.7294,768.8895,491.6944,774.75,499.6099" style="stroke:#181818;stroke-width:1;"/><text fill="#000000" font-family="sans-serif" font-size="13" lengthAdjust="spacing" textLength="94.7311" x="757" y="416.5669">@EventListener</text></g><!--link portfolio to optionPos--><g class="link" data-entity-1="portfolio" data-entity-2="optionPos" data-source-line="90" data-uid="lnk43" id="link_portfolio_optionPos"><path d="M785.31,548.7399 C792.96,582.6899 805.6797,639.147 813.3497,673.147" fill="none" id="portfolio-to-optionPos" style="stroke:#181818;stroke-width:1;"/><polygon fill="#181818" points="814.67,678.9999,816.5914,669.3403,813.5697,674.1225,808.7875,671.1008,814.67,678.9999" style="stroke:#181818;stroke-width:1;"/><text fill="#000000" font-family="sans-serif" font-size="13" lengthAdjust="spacing" textLength="56.329" x="802" y="618.5669">manages</text></g><!--link portfolio to stockPos--><g class="link" data-entity-1="portfolio" data-entity-2="stockPos" data-source-line="91" data-uid="lnk44" id="link_portfolio_stockPos"><path d="M810.01,548.7399 C853.24,582.6899 927.8514,641.2939 971.1414,675.2939" fill="none" id="portfolio-to-stockPos" style="stroke:#181818;stroke-width:1;"/><polygon fill="#181818" points="975.86,678.9999,971.2527,670.2951,971.9278,675.9116,966.3114,676.5866,975.86,678.9999" style="stroke:#181818;stroke-width:1;"/><text fill="#000000" font-family="sans-serif" font-size="13" lengthAdjust="spacing" textLength="56.329" x="900" y="618.5669">manages</text></g><!--link portfolio to positionEvents--><g class="link" data-entity-1="portfolio" data-entity-2="positionEvents" data-source-line="92" data-uid="lnk45" id="link_portfolio_positionEvents"><path d="M764.6,548.7399 C738.34,588.9099 689.423,663.7777 672.623,689.4777" fill="none" id="portfolio-to-positionEvents" style="stroke:#181818;stroke-width:1;"/><polygon fill="#181818" points="669.34,694.4999,677.6126,689.1553,672.0758,690.3148,670.9163,684.778,669.34,694.4999" style="stroke:#181818;stroke-width:1;"/><text fill="#000000" font-family="sans-serif" font-size="13" lengthAdjust="spacing" textLength="58.5521" x="726" y="618.5669">publishes</text></g><!--link positionEvents to fiscalMgr--><g class="link" data-entity-1="positionEvents" data-entity-2="fiscalMgr" data-source-line="95" data-uid="lnk46" id="link_positionEvents_fiscalMgr"><path d="M661.68,712.7099 C654.33,738.1399 633.0749,811.6855 621.5049,851.7455" fill="none" id="positionEvents-to-fiscalMgr" style="stroke:#181818;stroke-width:1;"/><polygon fill="#181818" points="619.84,857.5099,626.1802,849.9732,621.2274,852.7062,618.4944,847.7534,619.84,857.5099" style="stroke:#181818;stroke-width:1;"/><text fill="#000000" font-family="sans-serif" font-size="13" lengthAdjust="spacing" textLength="94.7311" x="641" y="799.5669">@EventListener</text></g><!--link fiscalMgr to fiscalRepo--><g class="link" data-entity-1="fiscalMgr" data-entity-2="fiscalRepo" data-source-line="96" data-uid="lnk47" id="link_fiscalMgr_fiscalRepo"><path d="M614.82,906.7199 C617.19,922.3699 622.61,942.3999 635,955.6699 C635.56,956.2699 697.1367,979.5807 749.9267,999.5107" fill="none" id="fiscalMgr-to-fiscalRepo" style="stroke:#181818;stroke-width:1;"/><polygon fill="#181818" points="755.54,1001.6299,748.5329,994.7089,750.8623,999.8639,745.7073,1002.1933,755.54,1001.6299" style="stroke:#181818;stroke-width:1;"/><text fill="#000000" font-family="sans-serif" font-size="13" lengthAdjust="spacing" textLength="90.1941" x="636" y="951.5669">gets FiscalYear</text></g><!--link fiscalMgr to fiscalRepo--><g class="link" data-entity-1="fiscalMgr" data-entity-2="fiscalRepo" data-source-line="106" data-uid="lnk53" id="link_fiscalMgr_fiscalRepo"><path d="M676.26,906.7199 C694.68,914.9099 714.31,925.0099 731,936.6699 C757.32,955.0599 778.5842,977.4482 795.0142,996.7782" fill="none" id="fiscalMgr-to-fiscalRepo-1" style="stroke:#181818;stroke-width:1;"/><polygon fill="#181818" points="798.9,1001.3499,796.1191,991.9018,795.6618,997.5402,790.0235,997.0829,798.9,1001.3499" style="stroke:#181818;stroke-width:1;"/><text fill="#000000" font-family="sans-serif" font-size="13" lengthAdjust="spacing" textLength="125.6581" x="753" y="951.5669">getAllSortedByYear()</text></g><!--link fiscalMgr to fiscalYear--><g class="link" data-entity-1="fiscalMgr" data-entity-2="fiscalYear" data-source-line="97" data-uid="lnk48" id="link_fiscalMgr_fiscalYear"><path d="M576.51,906.9399 C536.15,933.2299 476.5376,972.0552 436.2676,998.2852" fill="none" id="fiscalMgr-to-fiscalYear" style="stroke:#181818;stroke-width:1;"/><polygon fill="#181818" points="431.24,1001.5599,440.9645,999.9995,435.4296,998.831,436.5982,993.2961,431.24,1001.5599" style="stroke:#181818;stroke-width:1;"/><text fill="#000000" font-family="sans-serif" font-size="13" lengthAdjust="spacing" textLength="75.4911" x="530" y="951.5669">delegates to</text></g><!--link fiscalYear to exchange--><g class="link" data-entity-1="fiscalYear" data-entity-2="exchange" data-source-line="100" data-uid="lnk49" id="link_fiscalYear_exchange"><path d="M395,1050.8799 C395,1082.8999 395,1133.6199 395,1165.5799" fill="none" id="fiscalYear-to-exchange" style="stroke:#181818;stroke-width:1;"/><polygon fill="#181818" points="395,1171.5799,399,1162.5799,395,1166.5799,391,1162.5799,395,1171.5799" style="stroke:#181818;stroke-width:1;"/><text fill="#000000" font-family="sans-serif" font-size="13" lengthAdjust="spacing" textLength="118.3131" x="396" y="1113.5669">converts USD-&gt;EUR</text></g><!--link exchange to rateRepo--><g class="link" data-entity-1="exchange" data-entity-2="rateRepo" data-source-line="101" data-uid="lnk50" id="link_exchange_rateRepo"><path d="M395,1220.8699 C395,1243.3999 395,1271.0899 395,1293.5799" fill="none" id="exchange-to-rateRepo" style="stroke:#181818;stroke-width:1;"/><polygon fill="#181818" points="395,1299.5799,399,1290.5799,395,1294.5799,391,1290.5799,395,1299.5799" style="stroke:#181818;stroke-width:1;"/><text fill="#000000" font-family="sans-serif" font-size="13" lengthAdjust="spacing" textLength="86.3201" x="396" y="1265.5669">gets daily rate</text></g><!--link rateRepo to rateCsv--><g class="link" data-entity-1="rateRepo" data-entity-2="rateCsv" data-source-line="102" data-uid="lnk51" id="link_rateRepo_rateCsv"><path d="M395,1348.8499 C395,1371.8999 395,1400.6899 395,1423.5399" fill="none" id="rateRepo-to-rateCsv" style="stroke:#181818;stroke-width:1;"/><polygon fill="#181818" points="395,1429.5399,399,1420.5399,395,1424.5399,391,1420.5399,395,1429.5399" style="stroke:#181818;stroke-width:1;"/><text fill="#000000" font-family="sans-serif" font-size="13" lengthAdjust="spacing" textLength="95.7841" x="396" y="1395.5669">loads at startup</text></g><!--link runner to fiscalMgr--><g class="link" data-entity-1="runner" data-entity-2="fiscalMgr" data-source-line="105" data-uid="lnk52" id="link_runner_fiscalMgr"><path d="M577,149.9399 C577,186.3699 577,258.1899 577,319.1699 C577,319.1699 577,319.1699 577,704.6699 C577,760.3399 592.5923,818.1987 603.2023,851.7787" fill="none" id="runner-to-fiscalMgr" style="stroke:#181818;stroke-width:1;"/><polygon fill="#181818" points="605.01,857.4999,606.1126,847.713,603.5036,852.7322,598.4843,850.1232,605.01,857.4999" style="stroke:#181818;stroke-width:1;"/><text fill="#000000" font-family="sans-serif" font-size="13" lengthAdjust="spacing" textLength="84.8121" x="578" y="529.5669">printReports()</text></g><!--SRC=[XLPDR-Cs4BthLyowG9iSl47RMmwBsbgdNS2n3TcxQD4M1IEDPI8qgPAKOsFH_zuXAL4VSLfTBCvx7BuPpepyhi0zbmZf-d6pNYrMkx_IzNATmJU2bmVx96fCtZMKnPSnN6f46V6FwyVPfzM0S44Xr4lduTVT8blDbYCdx98avfdBYcbsX5mTAoLHMlYQ03rpbZ-NMjMoI9LGUgmqS9GkK0VyIT26v9yaiTmAX1qpzlAYzBEXrpEaJEIrO9Q8KvZf_C0jvhRM2EiJwXF7boIfo04h4IOBQVK5DefBEsdK_3whAi5pPhcIMIqbwZ-16T3-rJEaiWZQHGPgtmVSaofIoYMpQC0U48wCIzXJZkuZvVlta24h3AJRBx3d0as4VdWFc_f9S7EWxNYY77NOZuHf4afQi5AwGL0MNf3BHmnhfvaqB7SXq1wLep5SbZ727foQazFI19ctgojn3Z7tR9WsQFhvZm5rmKvXNNaTLjDc0pVRtVfklajlNpCq7jM92UBWkUBQty0T8-cbF58c-ZksLkNFqUMSN6w7BZDA7ga3GtVvNvdQK2BtId05ZqoInHqKynH1dvogNGKmYDuUoBfHXhk5fobl9rEWUQK3WcaioPKa3yzmpy8LmRJGd7u93dvSv3drKzdFyyEdXpNyNMEDiAVY3phY5lCsqmkwIlo5oO9k4wXlBMS2Sg4CzWbTiKPflQgzcl47Rd9ozHioVItd0NPe04DXxhtriTHZKWzrop6SeTUbzAL7TCPhoHyUufuWWHgPvahUp9L1YbYkbMdzmeLE74N-vZ5HhHyQZMywQlFj4YhKtbV_ThVeXYVvQUzLgprLzXtToF1AGciqSC_-C-eZapuKNRSpv-eDfRNMAFCBpJBfkeYEYzVJOejpVc2oH9zMR1Q1qa8PgHtbNpUcQsc9M2jvgToCNAHpE70gKKqpMNHjyJcx-xpzw7TH_hKwkk7pAgQRMvYiyAKtyFwGlgCcJeuavEoNdjXsQKCnaz3rmHXCIL8movwO6GrPEZlGxPacQe_K9WCoBvHuapOHZfXyHpNMV23ekqXVaZmKMFYgm7JweHkyS4yZqkN4TYURf8CTsPzFnChFvhwRBbW7jtth50HZOwAX0jJrGEyM9QsItaRd9uueSlEJDoyzbJuC7UI8SH0IyHWQQSHe9-6RX67onxeVkguBKmSERbuvpQEDpbVixjUwEwWZkb8aPecqlPidLwb-bDr3WGBByDrNJbvieposKTBRuFQtZKEx0uaEewgUVg3oJYBec6rtj98AniN5MvC8jRnG0SAt3xEKPPhUTUKaPVwF0tcWgFqawnT8Fq6L-wCHsERczdyID1DYIqGivXSN6V6JVm40]--></g></svg>