<svg xmlns="http://www.w3.org/2000/svg" xmlns:xlink="http://www.w3.org/1999/xlink" version="1.1" viewBox="0 0 2880 2148" style="background: #111111"><defs joint-selector="defs"></defs><g  joint-selector="layers" transform="matrix(1,0,0,1,0,0)"><g ></g><g ><!--z-index:1--><!--z-index:2--><!--z-index:3--><!--z-index:4--><!--z-index:5--><!--z-index:6--><!--z-index:7--><!--z-index:8--><!--z-index:9--><!--z-index:10--><!--z-index:11--><!--z-index:12--><!--z-index:13--><!--z-index:14--><!--z-index:15--><!--z-index:16--><!--z-index:17--><!--z-index:18--><!--z-index:19--><!--z-index:20--><g   id="j_58"  transform="translate(20,2104)"><g id="v-677"><text  id="v-678" font-size="24px" xml:space="preserve" y="0.8em" font-weight="normal" text-anchor="start" fill="#cccccc" pointer-events="none" display="block" font-family="Open Sans"><tspan  dy="0" display="block">Monday, November 3, 2025 at 3:42 PM Central European Standard Time</tspan></text></g></g><!--z-index:21--><g   id="j_57"  transform="translate(20,2058)"><g id="v-675"><text  id="v-676" font-size="36px" xml:space="preserve" y="0.8em" font-weight="normal" text-anchor="start" fill="#cccccc" pointer-events="none" display="block" font-family="Open Sans"><tspan  dy="0" display="block">Component View: Tastyworks Tax Calculator - CLI Application</tspan></text></g></g><!--z-index:22--><g   id="j_61"  transform="translate(397,20)" style=""><g id="v-700"><rect  id="v-701" width="2085" height="2020" rx="0" ry="0" stroke-width="2" pointer-events="none" stroke="#cccccc" fill="#111111" stroke-dasharray=""></rect><text  id="v-702" font-size="33.599999999999994px" xml:space="preserve" y="1981" font-weight="bold" text-anchor="start" pointer-events="visible" font-family="Open Sans" fill="#cccccc" transform="matrix(1,0,0,1,15,0)"><tspan  dy="0">Tastyworks Tax Calculator</tspan></text><text  id="v-703" font-size="16.799999999999997px" xml:space="preserve" y="2005" font-weight="normal" text-anchor="start" pointer-events="visible" font-family="Open Sans" fill="#cccccc" transform="matrix(1,0,0,1,15,0)"><tspan  dy="0">[Software System]</tspan></text><image  id="v-704" pointer-events="visible"></image></g></g><!--z-index:23--><g   id="j_60"  transform="translate(417,40)" style=""><g id="v-695"><rect  id="v-696" width="2045" height="1901" rx="0" ry="0" stroke-width="2" pointer-events="none" stroke="#cccccc" fill="#111111" stroke-dasharray=""></rect><text  id="v-697" font-size="33.599999999999994px" xml:space="preserve" y="1862" font-weight="bold" text-anchor="start" pointer-events="visible" font-family="Open Sans" fill="#cccccc" transform="matrix(1,0,0,1,15,0)"><tspan  dy="0">CLI Application</tspan></text><text  id="v-698" font-size="16.799999999999997px" xml:space="preserve" y="1886" font-weight="normal" text-anchor="start" pointer-events="visible" font-family="Open Sans" fill="#cccccc" transform="matrix(1,0,0,1,15,0)"><tspan  dy="0">[Container]</tspan></text><image  id="v-699" pointer-events="visible"></image></g></g><!--z-index:24--><g   id="j_59"  transform="translate(437,67)" style=""><g  id="v-688" style="opacity: 1;"><rect  id="v-689" rx="20" ry="20" stroke-width="2" pointer-events="visiblePainted" fill="#1168bd" stroke="#0f5eaa" stroke-dasharray="" width="450" height="300"></rect><text  id="v-690" font-size="33.599999999999994px" xml:space="preserve" y="86.9" font-weight="bold" text-anchor="middle" pointer-events="visible" font-family="Open Sans" fill="#ffffff" dominant-baseline="hanging" transform="matrix(1,0,0,1,225,0)"><tspan  dy="0">ApplicationRunner</tspan></text><text  id="v-691" font-size="16.799999999999997px" xml:space="preserve" y="128.5" text-anchor="middle" font-family="Open Sans" fill="#ffffff" dominant-baseline="hanging" transform="matrix(1,0,0,1,225,0)" style="display: block;"><tspan  dy="0">[Component: Kotlin/Spring Boot]</tspan></text><text  id="v-692" font-size="24px" xml:space="preserve" y="160.3" text-anchor="middle" font-family="Open Sans" fill="#ffffff" dominant-baseline="hanging" transform="matrix(1,0,0,1,225,0)" style="display: block;"><tspan  dy="0">Main entry point, coordinates the</tspan><tspan dy="1.2em" x="0" >flow</tspan></text><g  id="v-693" color="#ffffff" transform="matrix(1,0,0,1,222.5,268)" display="none"><g ></g><g ></g><g ></g><g ></g></g><image  id="v-694"></image></g></g><!--z-index:25--><g   id="j_62"  transform="translate(1210,60)" style=""><g  id="v-711" style="opacity: 1;"><rect  id="v-712" rx="1" ry="1" stroke-width="2" pointer-events="visiblePainted" fill="#a8c5e0" stroke="#97b1ca" stroke-dasharray="" width="450" height="300"></rect><text  id="v-713" font-size="33.599999999999994px" xml:space="preserve" y="101.30000000000001" font-weight="bold" text-anchor="middle" pointer-events="visible" font-family="Open Sans" fill="#000000" dominant-baseline="hanging" transform="matrix(1,0,0,1,225,0)"><tspan  dy="0">TransactionCsvReader</tspan></text><text  id="v-714" font-size="16.799999999999997px" xml:space="preserve" y="142.9" text-anchor="middle" font-family="Open Sans" fill="#000000" dominant-baseline="hanging" transform="matrix(1,0,0,1,225,0)" style="display: block;"><tspan  dy="0">[Component: Kotlin]</tspan></text><text  id="v-715" font-size="24px" xml:space="preserve" y="174.7" text-anchor="middle" font-family="Open Sans" fill="#000000" dominant-baseline="hanging" transform="matrix(1,0,0,1,225,0)" style="display: block;"><tspan  dy="0">Parses Tastyworks CSV files</tspan></text><g  id="v-716" color="#000000" transform="matrix(1,0,0,1,222.5,268)" display="none"><g ></g><g ></g><g ></g><g ></g></g><image  id="v-717"></image></g></g><!--z-index:26--><g   id="j_63"  transform="translate(467,1017)" style=""><g  id="v-721" style="opacity: 1;"><rect  id="v-722" rx="1" ry="1" stroke-width="2" pointer-events="visiblePainted" fill="#85bbf0" stroke="#78a8d8" stroke-dasharray="" width="450" height="300"></rect><text  id="v-723" font-size="33.599999999999994px" xml:space="preserve" y="86.9" font-weight="bold" text-anchor="middle" pointer-events="visible" font-family="Open Sans" fill="#000000" dominant-baseline="hanging" transform="matrix(1,0,0,1,225,0)"><tspan  dy="0">Portfolio</tspan></text><text  id="v-724" font-size="16.799999999999997px" xml:space="preserve" y="128.5" text-anchor="middle" font-family="Open Sans" fill="#000000" dominant-baseline="hanging" transform="matrix(1,0,0,1,225,0)" style="display: block;"><tspan  dy="0">[Component: Kotlin]</tspan></text><text  id="v-725" font-size="24px" xml:space="preserve" y="160.3" text-anchor="middle" font-family="Open Sans" fill="#000000" dominant-baseline="hanging" transform="matrix(1,0,0,1,225,0)" style="display: block;"><tspan  dy="0">Tracks and manages all trading</tspan><tspan dy="1.2em" x="0" >positions</tspan></text><g  id="v-726" color="#000000" transform="matrix(1,0,0,1,222.5,268)" display="none"><g ></g><g ></g><g ></g><g ></g></g><image  id="v-727"></image></g></g><!--z-index:27--><g   id="j_64"  transform="translate(1207,1522)" style=""><g  id="v-731" style="opacity: 1;"><rect  id="v-732" rx="1" ry="1" stroke-width="2" pointer-events="visiblePainted" fill="#85bbf0" stroke="#78a8d8" stroke-dasharray="" width="450" height="300"></rect><text  id="v-733" font-size="33.599999999999994px" xml:space="preserve" y="86.9" font-weight="bold" text-anchor="middle" pointer-events="visible" font-family="Open Sans" fill="#000000" dominant-baseline="hanging" transform="matrix(1,0,0,1,225,0)"><tspan  dy="0">FiscalYear</tspan></text><text  id="v-734" font-size="16.799999999999997px" xml:space="preserve" y="128.5" text-anchor="middle" font-family="Open Sans" fill="#000000" dominant-baseline="hanging" transform="matrix(1,0,0,1,225,0)" style="display: block;"><tspan  dy="0">[Component: Kotlin]</tspan></text><text  id="v-735" font-size="24px" xml:space="preserve" y="160.3" text-anchor="middle" font-family="Open Sans" fill="#000000" dominant-baseline="hanging" transform="matrix(1,0,0,1,225,0)" style="display: block;"><tspan  dy="0">Manages tax calculations across</tspan><tspan dy="1.2em" x="0" >fiscal years</tspan></text><g  id="v-736" color="#000000" transform="matrix(1,0,0,1,222.5,268)" display="none"><g ></g><g ></g><g ></g><g ></g></g><image  id="v-737"></image></g></g><!--z-index:28--><g   id="j_65"  transform="translate(1992,1497)" style=""><g  id="v-744" style="opacity: 1;"><rect  id="v-745" rx="1" ry="1" stroke-width="2" pointer-events="visiblePainted" fill="#a8c5e0" stroke="#97b1ca" stroke-dasharray="" width="450" height="300"></rect><text  id="v-746" font-size="33.599999999999994px" xml:space="preserve" y="86.9" font-weight="bold" text-anchor="middle" pointer-events="visible" font-family="Open Sans" fill="#000000" dominant-baseline="hanging" transform="matrix(1,0,0,1,225,0)"><tspan  dy="0">CurrencyExchange</tspan></text><text  id="v-747" font-size="16.799999999999997px" xml:space="preserve" y="128.5" text-anchor="middle" font-family="Open Sans" fill="#000000" dominant-baseline="hanging" transform="matrix(1,0,0,1,225,0)" style="display: block;"><tspan  dy="0">[Component: Kotlin]</tspan></text><text  id="v-748" font-size="24px" xml:space="preserve" y="160.3" text-anchor="middle" font-family="Open Sans" fill="#000000" dominant-baseline="hanging" transform="matrix(1,0,0,1,225,0)" style="display: block;"><tspan  dy="0">Converts USD to EUR for tax</tspan><tspan dy="1.2em" x="0" >reporting</tspan></text><g  id="v-749" color="#000000" transform="matrix(1,0,0,1,222.5,268)" display="none"><g ></g><g ></g><g ></g><g ></g></g><image  id="v-750"></image></g></g><!--z-index:29--><g   id="j_66"  transform="translate(437,557)" style=""><g  id="v-757" style="opacity: 1;"><ellipse  id="v-758" stroke-width="2" pointer-events="visiblePainted" fill="#90ee90" stroke="#82d682" stroke-dasharray="" cx="225" cy="150" rx="225" ry="150"></ellipse><text  id="v-759" font-size="33.599999999999994px" xml:space="preserve" y="86.9" font-weight="bold" text-anchor="middle" pointer-events="visible" font-family="Open Sans" fill="#000000" dominant-baseline="hanging" transform="matrix(1,0,0,1,225,0)"><tspan  dy="0">NewTransactionEvent</tspan></text><text  id="v-760" font-size="16.799999999999997px" xml:space="preserve" y="128.5" text-anchor="middle" font-family="Open Sans" fill="#000000" dominant-baseline="hanging" transform="matrix(1,0,0,1,225,0)" style="display: block;"><tspan  dy="0">[Component: Event]</tspan></text><text  id="v-761" font-size="24px" xml:space="preserve" y="160.3" text-anchor="middle" font-family="Open Sans" fill="#000000" dominant-baseline="hanging" transform="matrix(1,0,0,1,225,0)" style="display: block;"><tspan  dy="0">Published when transaction is</tspan><tspan dy="1.2em" x="0" >processed</tspan></text><g  id="v-762" font-weight="normal" text-anchor="middle" color="#000000" transform="matrix(1,0,0,1,222.1999969482422,268)" display="none"><g ></g><g ></g><g ></g><g ></g></g><image  id="v-763"></image></g></g><!--z-index:30--><g   id="j_67"  transform="translate(502,1542)" style=""><g  id="v-770" style="opacity: 1;"><ellipse  id="v-771" stroke-width="2" pointer-events="visiblePainted" fill="#90ee90" stroke="#82d682" stroke-dasharray="" cx="225" cy="150" rx="225" ry="150"></ellipse><text  id="v-772" font-size="33.599999999999994px" xml:space="preserve" y="86.9" font-weight="bold" text-anchor="middle" pointer-events="visible" font-family="Open Sans" fill="#000000" dominant-baseline="hanging" transform="matrix(1,0,0,1,225,0)"><tspan  dy="0">Position Events</tspan></text><text  id="v-773" font-size="16.799999999999997px" xml:space="preserve" y="128.5" text-anchor="middle" font-family="Open Sans" fill="#000000" dominant-baseline="hanging" transform="matrix(1,0,0,1,225,0)" style="display: block;"><tspan  dy="0">[Component: Events]</tspan></text><text  id="v-774" font-size="24px" xml:space="preserve" y="160.3" text-anchor="middle" font-family="Open Sans" fill="#000000" dominant-baseline="hanging" transform="matrix(1,0,0,1,225,0)" style="display: block;"><tspan  dy="0">PositionOpenedEvent,</tspan><tspan dy="1.2em" x="0" >PositionClosedEvent, etc.</tspan></text><g  id="v-775" font-weight="normal" text-anchor="middle" color="#000000" transform="matrix(1,0,0,1,222.1999969482422,268)" display="none"><g ></g><g ></g><g ></g><g ></g></g><image  id="v-776"></image></g></g><!--z-index:31--><g   id="j_68" ><path  stroke="#cccccc" d="M 887 215 L 1210 212" id="v-789" stroke-width="2" stroke-dasharray="8 8" fill="none" style="opacity: 1;"></path><path  fill="black" stroke="black" d="M 0 0 0 0" transform="matrix(0.9999591112136841,-0.009039711207151413,0.009039711207151413,0.9999591112136841,887,214.9600067138672)"></path><path  fill="#cccccc" stroke="#cccccc" d="M 20 0 L 0 10 L 20 20 z" id="v-791" transform="matrix(-0.9999591112136841,0.009039977565407753,-0.009039977565407753,-0.9999591112136841,1210.09033203125,222.0395965576172)" style="opacity: 1;"></path><path  d="M 887 215 L 1210 212" id="v-790" fill="none" style="cursor: default;"></path><g ><g id="v-783"  label-idx="0" cursor="move" transform="matrix(1,0,0,1,1048.5,213.5)" style="cursor: default; opacity: 1;"><rect joint-selector="rect" id="v-786" fill="#111111" rx="3" ry="3" pointer-events="none" width="175.548095703125" height="61.65659713745117" transform="matrix(1,0,0,1,-87.80000305175781,-30.799999237060547)"></rect><text joint-selector="text" id="v-785" font-size="24px" xml:space="preserve" y="0.8em" fill="#cccccc" text-anchor="middle" pointer-events="none" font-family="Open Sans" font-weight="normal" transform="matrix(1,0,0,1,0,-24.200000762939453)"><tspan  dy="0">Reads</tspan><tspan dy="1.2em" x="0" >transactions via</tspan></text></g><g id="v-784"  label-idx="1" cursor="move" transform="matrix(1,0,0,1,1038.5,239.89999389648438)" style="cursor: default; opacity: 1;"><rect joint-selector="rect" id="v-788" fill="#ffffff" rx="3" ry="3"  width="0" height="0" transform="matrix(1,0,0,1,0,0)" display="none"></rect><text joint-selector="text" id="v-787" fill="#000000" font-size="14" text-anchor="middle" pointer-events="none"></text></g></g><g  display="none"></g><g  id="v-793" display="none"><g  id="v-781"><path  end="source" d="M 26 0 L 0 13 L 26 26 z"></path></g><g  id="v-782"><path  end="target" d="M 26 0 L 0 13 L 26 26 z"></path></g></g><g  id="v-792" display="none"><g  id="v-780" transform="translate(926.9982748003433, 214.62849899566245) "><g  event="remove"><circle r="11"></circle><path transform="scale(.8) translate(-16, -16)" d="M24.778,21.419 19.276,15.917 24.777,10.415 21.949,7.585 16.447,13.087 10.945,7.585 8.117,10.415 13.618,15.917 8.116,21.419 10.946,24.248 16.447,18.746 21.948,24.248z"></path><title>Remove link.</title></g><g  event="link:options"><circle r="11" transform="translate(25)"></circle><path fill="white" transform="scale(.55) translate(29, -16)" d="M31.229,17.736c0.064-0.571,0.104-1.148,0.104-1.736s-0.04-1.166-0.104-1.737l-4.377-1.557c-0.218-0.716-0.504-1.401-0.851-2.05l1.993-4.192c-0.725-0.91-1.549-1.734-2.458-2.459l-4.193,1.994c-0.647-0.347-1.334-0.632-2.049-0.849l-1.558-4.378C17.165,0.708,16.588,0.667,16,0.667s-1.166,0.041-1.737,0.105L12.707,5.15c-0.716,0.217-1.401,0.502-2.05,0.849L6.464,4.005C5.554,4.73,4.73,5.554,4.005,6.464l1.994,4.192c-0.347,0.648-0.632,1.334-0.849,2.05l-4.378,1.557C0.708,14.834,0.667,15.412,0.667,16s0.041,1.165,0.105,1.736l4.378,1.558c0.217,0.715,0.502,1.401,0.849,2.049l-1.994,4.193c0.725,0.909,1.549,1.733,2.459,2.458l4.192-1.993c0.648,0.347,1.334,0.633,2.05,0.851l1.557,4.377c0.571,0.064,1.148,0.104,1.737,0.104c0.588,0,1.165-0.04,1.736-0.104l1.558-4.377c0.715-0.218,1.399-0.504,2.049-0.851l4.193,1.993c0.909-0.725,1.733-1.549,2.458-2.458l-1.993-4.193c0.347-0.647,0.633-1.334,0.851-2.049L31.229,17.736zM16,20.871c-2.69,0-4.872-2.182-4.872-4.871c0-2.69,2.182-4.872,4.872-4.872c2.689,0,4.871,2.182,4.871,4.872C20.871,18.689,18.689,20.871,16,20.871z"></path><title>Link options.</title></g></g></g></g><!--z-index:32--><g   id="j_69" ><path  stroke="#cccccc" d="M 662 367 L 662 557" id="v-803" stroke-width="2" stroke-dasharray="8 8" fill="none" style="opacity: 1;"></path><path  fill="black" stroke="black" d="M 0 0 0 0" transform="matrix(6.123234262925839e-17,1,-1,6.123234262925839e-17,662,367)"></path><path  fill="#cccccc" stroke="#cccccc" d="M 20 0 L 0 10 L 20 20 z" id="v-805" transform="matrix(-1.8369701465288538e-16,-1,1,-1.8369701465288538e-16,652,557)" style="opacity: 1;"></path><path  d="M 662 367 L 662 557" id="v-804" fill="none" style="cursor: default;"></path><g ><g id="v-797"  label-idx="0" cursor="move" transform="matrix(1,0,0,1,662,462)" style="cursor: default; opacity: 1;"><rect joint-selector="rect" id="v-800" fill="#111111" rx="3" ry="3" pointer-events="none" width="107.05773162841797" height="32.85659408569336" transform="matrix(1,0,0,1,-53.5,-16.399999618530273)"></rect><text joint-selector="text" id="v-799" font-size="24px" xml:space="preserve" y="0.8em" fill="#cccccc" text-anchor="middle" pointer-events="none" font-family="Open Sans" font-weight="normal" transform="matrix(1,0,0,1,0,-9.800000190734863)"><tspan  dy="0">Publishes</tspan></text></g><g id="v-798"  label-idx="1" cursor="move" transform="matrix(1,0,0,1,652,474)" style="cursor: default; opacity: 1;"><rect joint-selector="rect" id="v-802" fill="#ffffff" rx="3" ry="3"  width="0" height="0" transform="matrix(1,0,0,1,0,0)" display="none"></rect><text joint-selector="text" id="v-801" fill="#000000" font-size="14" text-anchor="middle" pointer-events="none"></text></g></g><g  display="none"></g><g  id="v-807" display="none"><g  id="v-795"><path  end="source" d="M 26 0 L 0 13 L 26 26 z"></path></g><g  id="v-796"><path  end="target" d="M 26 0 L 0 13 L 26 26 z"></path></g></g><g  id="v-806" display="none"><g  id="v-794" transform="translate(662, 407) "><g  event="remove"><circle r="11"></circle><path transform="scale(.8) translate(-16, -16)" d="M24.778,21.419 19.276,15.917 24.777,10.415 21.949,7.585 16.447,13.087 10.945,7.585 8.117,10.415 13.618,15.917 8.116,21.419 10.946,24.248 16.447,18.746 21.948,24.248z"></path><title>Remove link.</title></g><g  event="link:options"><circle r="11" transform="translate(25)"></circle><path fill="white" transform="scale(.55) translate(29, -16)" d="M31.229,17.736c0.064-0.571,0.104-1.148,0.104-1.736s-0.04-1.166-0.104-1.737l-4.377-1.557c-0.218-0.716-0.504-1.401-0.851-2.05l1.993-4.192c-0.725-0.91-1.549-1.734-2.458-2.459l-4.193,1.994c-0.647-0.347-1.334-0.632-2.049-0.849l-1.558-4.378C17.165,0.708,16.588,0.667,16,0.667s-1.166,0.041-1.737,0.105L12.707,5.15c-0.716,0.217-1.401,0.502-2.05,0.849L6.464,4.005C5.554,4.73,4.73,5.554,4.005,6.464l1.994,4.192c-0.347,0.648-0.632,1.334-0.849,2.05l-4.378,1.557C0.708,14.834,0.667,15.412,0.667,16s0.041,1.165,0.105,1.736l4.378,1.558c0.217,0.715,0.502,1.401,0.849,2.049l-1.994,4.193c0.725,0.909,1.549,1.733,2.459,2.458l4.192-1.993c0.648,0.347,1.334,0.633,2.05,0.851l1.557,4.377c0.571,0.064,1.148,0.104,1.737,0.104c0.588,0,1.165-0.04,1.736-0.104l1.558-4.377c0.715-0.218,1.399-0.504,2.049-0.851l4.193,1.993c0.909-0.725,1.733-1.549,2.458-2.458l-1.993-4.193c0.347-0.647,0.633-1.334,0.851-2.049L31.229,17.736zM16,20.871c-2.69,0-4.872-2.182-4.872-4.871c0-2.69,2.182-4.872,4.872-4.872c2.689,0,4.871,2.182,4.871,4.872C20.871,18.689,18.689,20.871,16,20.871z"></path><title>Link options.</title></g></g></g></g><!--z-index:33--><g   id="j_70" ><path  stroke="#cccccc" d="M 682 1017 L 672 857" id="v-817" stroke-width="2" stroke-dasharray="8 8" fill="none" style="opacity: 1;"></path><path  fill="black" stroke="black" d="M 0 0 0 0" transform="matrix(-0.06511133909225464,-0.9978780150413513,0.9978780150413513,-0.06511133909225464,682.219970703125,1017)"></path><path  fill="#cccccc" stroke="#cccccc" d="M 20 0 L 0 10 L 20 20 z" id="v-819" transform="matrix(0.06511159986257553,0.9978780150413513,-0.9978780150413513,0.06511159986257553,681.7587280273438,856.348876953125)" style="opacity: 1;"></path><path  d="M 682 1017 L 672 857" id="v-818" fill="none" style="cursor: default;"></path><g ><g id="v-811"  label-idx="0" cursor="move" transform="matrix(1,0,0,1,677,937)" style="cursor: default; opacity: 1;"><rect joint-selector="rect" id="v-814" fill="#111111" rx="3" ry="3" pointer-events="none" width="107.44888305664062" height="32.85659408569336" transform="matrix(1,0,0,1,-53.70000076293945,-16.399999618530273)"></rect><text joint-selector="text" id="v-813" font-size="24px" xml:space="preserve" y="0.8em" fill="#cccccc" text-anchor="middle" pointer-events="none" font-family="Open Sans" font-weight="normal" transform="matrix(1,0,0,1,0,-9.800000190734863)"><tspan  dy="0">Listens to</tspan></text></g><g id="v-812"  label-idx="1" cursor="move" transform="matrix(1,0,0,1,667,949)" style="cursor: default; opacity: 1;"><rect joint-selector="rect" id="v-816" fill="#ffffff" rx="3" ry="3"  width="0" height="0" transform="matrix(1,0,0,1,0,0)" display="none"></rect><text joint-selector="text" id="v-815" fill="#000000" font-size="14" text-anchor="middle" pointer-events="none"></text></g></g><g  display="none"></g><g  id="v-821" display="none"><g  id="v-809"><path  end="source" d="M 26 0 L 0 13 L 26 26 z"></path></g><g  id="v-810"><path  end="target" d="M 26 0 L 0 13 L 26 26 z"></path></g></g><g  id="v-820" display="none"><g  id="v-808" transform="translate(679.5048685537928, 977.0778968606845) "><g  event="remove"><circle r="11"></circle><path transform="scale(.8) translate(-16, -16)" d="M24.778,21.419 19.276,15.917 24.777,10.415 21.949,7.585 16.447,13.087 10.945,7.585 8.117,10.415 13.618,15.917 8.116,21.419 10.946,24.248 16.447,18.746 21.948,24.248z"></path><title>Remove link.</title></g><g  event="link:options"><circle r="11" transform="translate(25)"></circle><path fill="white" transform="scale(.55) translate(29, -16)" d="M31.229,17.736c0.064-0.571,0.104-1.148,0.104-1.736s-0.04-1.166-0.104-1.737l-4.377-1.557c-0.218-0.716-0.504-1.401-0.851-2.05l1.993-4.192c-0.725-0.91-1.549-1.734-2.458-2.459l-4.193,1.994c-0.647-0.347-1.334-0.632-2.049-0.849l-1.558-4.378C17.165,0.708,16.588,0.667,16,0.667s-1.166,0.041-1.737,0.105L12.707,5.15c-0.716,0.217-1.401,0.502-2.05,0.849L6.464,4.005C5.554,4.73,4.73,5.554,4.005,6.464l1.994,4.192c-0.347,0.648-0.632,1.334-0.849,2.05l-4.378,1.557C0.708,14.834,0.667,15.412,0.667,16s0.041,1.165,0.105,1.736l4.378,1.558c0.217,0.715,0.502,1.401,0.849,2.049l-1.994,4.193c0.725,0.909,1.549,1.733,2.459,2.458l4.192-1.993c0.648,0.347,1.334,0.633,2.05,0.851l1.557,4.377c0.571,0.064,1.148,0.104,1.737,0.104c0.588,0,1.165-0.04,1.736-0.104l1.558-4.377c0.715-0.218,1.399-0.504,2.049-0.851l4.193,1.993c0.909-0.725,1.733-1.549,2.458-2.458l-1.993-4.193c0.347-0.647,0.633-1.334,0.851-2.049L31.229,17.736zM16,20.871c-2.69,0-4.872-2.182-4.872-4.871c0-2.69,2.182-4.872,4.872-4.872c2.689,0,4.871,2.182,4.871,4.872C20.871,18.689,18.689,20.871,16,20.871z"></path><title>Link options.</title></g></g></g></g><!--z-index:34--><g   id="j_71" ><path  stroke="#cccccc" d="M 702 1317 L 717 1542" id="v-831" stroke-width="2" stroke-dasharray="8 8" fill="none" style="opacity: 1;"></path><path  fill="black" stroke="black" d="M 0 0 0 0" transform="matrix(0.06651895493268967,0.9977851510047913,-0.9977851510047913,0.06651895493268967,702,1317)"></path><path  fill="#cccccc" stroke="#cccccc" d="M 20 0 L 0 10 L 20 20 z" id="v-833" transform="matrix(-0.06651922315359116,-0.9977851510047913,0.9977851510047913,-0.06651922315359116,707.0221557617188,1542.6651611328125)" style="opacity: 1;"></path><path  d="M 702 1317 L 717 1542" id="v-832" fill="none" style="cursor: default;"></path><g ><g id="v-825"  label-idx="0" cursor="move" transform="matrix(1,0,0,1,709.5,1429.5)" style="cursor: default; opacity: 1;"><rect joint-selector="rect" id="v-828" fill="#111111" rx="3" ry="3" pointer-events="none" width="107.05773162841797" height="32.85659408569336" transform="matrix(1,0,0,1,-53.5,-16.399999618530273)"></rect><text joint-selector="text" id="v-827" font-size="24px" xml:space="preserve" y="0.8em" fill="#cccccc" text-anchor="middle" pointer-events="none" font-family="Open Sans" font-weight="normal" transform="matrix(1,0,0,1,0,-9.800000190734863)"><tspan  dy="0">Publishes</tspan></text></g><g id="v-826"  label-idx="1" cursor="move" transform="matrix(1,0,0,1,699.5,1441.5)" style="cursor: default; opacity: 1;"><rect joint-selector="rect" id="v-830" fill="#ffffff" rx="3" ry="3"  width="0" height="0" transform="matrix(1,0,0,1,0,0)" display="none"></rect><text joint-selector="text" id="v-829" fill="#000000" font-size="14" text-anchor="middle" pointer-events="none"></text></g></g><g  display="none"></g><g  id="v-835" display="none"><g  id="v-823"><path  end="source" d="M 26 0 L 0 13 L 26 26 z"></path></g><g  id="v-824"><path  end="target" d="M 26 0 L 0 13 L 26 26 z"></path></g></g><g  id="v-834" display="none"><g  id="v-822" transform="translate(704.660760420951, 1356.9114063142642) "><g  event="remove"><circle r="11"></circle><path transform="scale(.8) translate(-16, -16)" d="M24.778,21.419 19.276,15.917 24.777,10.415 21.949,7.585 16.447,13.087 10.945,7.585 8.117,10.415 13.618,15.917 8.116,21.419 10.946,24.248 16.447,18.746 21.948,24.248z"></path><title>Remove link.</title></g><g  event="link:options"><circle r="11" transform="translate(25)"></circle><path fill="white" transform="scale(.55) translate(29, -16)" d="M31.229,17.736c0.064-0.571,0.104-1.148,0.104-1.736s-0.04-1.166-0.104-1.737l-4.377-1.557c-0.218-0.716-0.504-1.401-0.851-2.05l1.993-4.192c-0.725-0.91-1.549-1.734-2.458-2.459l-4.193,1.994c-0.647-0.347-1.334-0.632-2.049-0.849l-1.558-4.378C17.165,0.708,16.588,0.667,16,0.667s-1.166,0.041-1.737,0.105L12.707,5.15c-0.716,0.217-1.401,0.502-2.05,0.849L6.464,4.005C5.554,4.73,4.73,5.554,4.005,6.464l1.994,4.192c-0.347,0.648-0.632,1.334-0.849,2.05l-4.378,1.557C0.708,14.834,0.667,15.412,0.667,16s0.041,1.165,0.105,1.736l4.378,1.558c0.217,0.715,0.502,1.401,0.849,2.049l-1.994,4.193c0.725,0.909,1.549,1.733,2.459,2.458l4.192-1.993c0.648,0.347,1.334,0.633,2.05,0.851l1.557,4.377c0.571,0.064,1.148,0.104,1.737,0.104c0.588,0,1.165-0.04,1.736-0.104l1.558-4.377c0.715-0.218,1.399-0.504,2.049-0.851l4.193,1.993c0.909-0.725,1.733-1.549,2.458-2.458l-1.993-4.193c0.347-0.647,0.633-1.334,0.851-2.049L31.229,17.736zM16,20.871c-2.69,0-4.872-2.182-4.872-4.871c0-2.69,2.182-4.872,4.872-4.872c2.689,0,4.871,2.182,4.871,4.872C20.871,18.689,18.689,20.871,16,20.871z"></path><title>Link options.</title></g></g></g></g><!--z-index:35--><g   id="j_72" ><path  stroke="#cccccc" d="M 1207 1678 L 952 1686" id="v-845" stroke-width="2" stroke-dasharray="8 8" fill="none" style="opacity: 1;"></path><path  fill="black" stroke="black" d="M 0 0 0 0" transform="matrix(-0.9995971918106079,0.02838069200515747,-0.02838069200515747,-0.9995971918106079,1207,1678.3800048828125)"></path><path  fill="#cccccc" stroke="#cccccc" d="M 20 0 L 0 10 L 20 20 z" id="v-847" transform="matrix(0.9995971918106079,-0.02838069200515747,0.02838069200515747,0.9995971918106079,951.7161865234375,1675.6240234375)" style="opacity: 1;"></path><path  d="M 1207 1678 L 952 1686" id="v-846" fill="none" style="cursor: default;"></path><g ><g id="v-839"  label-idx="0" cursor="move" transform="matrix(1,0,0,1,1079.5,1682)" style="cursor: default; opacity: 1;"><rect joint-selector="rect" id="v-842" fill="#111111" rx="3" ry="3" pointer-events="none" width="100.97535705566406" height="32.85659408569336" transform="matrix(1,0,0,1,-50.5,-16.399999618530273)"></rect><text joint-selector="text" id="v-841" font-size="24px" xml:space="preserve" y="0.8em" fill="#cccccc" text-anchor="middle" pointer-events="none" font-family="Open Sans" font-weight="normal" transform="matrix(1,0,0,1,0,-9.800000190734863)"><tspan  dy="0">listens to</tspan></text></g><g id="v-840"  label-idx="1" cursor="move" transform="matrix(1,0,0,1,1069.5,1694)" style="cursor: default; opacity: 1;"><rect joint-selector="rect" id="v-844" fill="#ffffff" rx="3" ry="3"  width="0" height="0" transform="matrix(1,0,0,1,0,0)" display="none"></rect><text joint-selector="text" id="v-843" fill="#000000" font-size="14" text-anchor="middle" pointer-events="none"></text></g></g><g  display="none"></g><g  id="v-849" display="none"><g  id="v-837"><path  end="source" d="M 26 0 L 0 13 L 26 26 z"></path></g><g  id="v-838"><path  end="target" d="M 26 0 L 0 13 L 26 26 z"></path></g></g><g  id="v-848" display="none"><g  id="v-836" transform="translate(1167.0196702177157, 1679.2542848559149) "><g  event="remove"><circle r="11"></circle><path transform="scale(.8) translate(-16, -16)" d="M24.778,21.419 19.276,15.917 24.777,10.415 21.949,7.585 16.447,13.087 10.945,7.585 8.117,10.415 13.618,15.917 8.116,21.419 10.946,24.248 16.447,18.746 21.948,24.248z"></path><title>Remove link.</title></g><g  event="link:options"><circle r="11" transform="translate(25)"></circle><path fill="white" transform="scale(.55) translate(29, -16)" d="M31.229,17.736c0.064-0.571,0.104-1.148,0.104-1.736s-0.04-1.166-0.104-1.737l-4.377-1.557c-0.218-0.716-0.504-1.401-0.851-2.05l1.993-4.192c-0.725-0.91-1.549-1.734-2.458-2.459l-4.193,1.994c-0.647-0.347-1.334-0.632-2.049-0.849l-1.558-4.378C17.165,0.708,16.588,0.667,16,0.667s-1.166,0.041-1.737,0.105L12.707,5.15c-0.716,0.217-1.401,0.502-2.05,0.849L6.464,4.005C5.554,4.73,4.73,5.554,4.005,6.464l1.994,4.192c-0.347,0.648-0.632,1.334-0.849,2.05l-4.378,1.557C0.708,14.834,0.667,15.412,0.667,16s0.041,1.165,0.105,1.736l4.378,1.558c0.217,0.715,0.502,1.401,0.849,2.049l-1.994,4.193c0.725,0.909,1.549,1.733,2.459,2.458l4.192-1.993c0.648,0.347,1.334,0.633,2.05,0.851l1.557,4.377c0.571,0.064,1.148,0.104,1.737,0.104c0.588,0,1.165-0.04,1.736-0.104l1.558-4.377c0.715-0.218,1.399-0.504,2.049-0.851l4.193,1.993c0.909-0.725,1.733-1.549,2.458-2.458l-1.993-4.193c0.347-0.647,0.633-1.334,0.851-2.049L31.229,17.736zM16,20.871c-2.69,0-4.872-2.182-4.872-4.871c0-2.69,2.182-4.872,4.872-4.872c2.689,0,4.871,2.182,4.871,4.872C20.871,18.689,18.689,20.871,16,20.871z"></path><title>Link options.</title></g></g></g></g><!--z-index:36--><g   id="j_73" ><path  stroke="#cccccc" d="M 1657 1665 L 1992 1654" id="v-862" stroke-width="2" stroke-dasharray="8 8" fill="none" style="opacity: 1;"></path><path  fill="black" stroke="black" d="M 0 0 0 0" transform="matrix(0.9994940757751465,-0.03180503100156784,0.03180503100156784,0.9994940757751465,1657,1664.8299560546875)"></path><path  fill="#cccccc" stroke="#cccccc" d="M 20 0 L 0 10 L 20 20 z" id="v-864" transform="matrix(-0.9994940757751465,0.03180476278066635,-0.03180476278066635,-0.9994940757751465,1992.3179931640625,1664.1649169921875)" style="opacity: 1;"></path><path  d="M 1657 1665 L 1992 1654" id="v-863" fill="none" style="cursor: default;"></path><g ><g id="v-856"  label-idx="0" cursor="move" transform="matrix(1,0,0,1,1824.5,1659.5)" style="cursor: default; opacity: 1;"><rect joint-selector="rect" id="v-859" fill="#111111" rx="3" ry="3" pointer-events="none" width="201.07061767578125" height="61.65659713745117" transform="matrix(1,0,0,1,-99.69999694824219,-30.799999237060547)"></rect><text joint-selector="text" id="v-858" font-size="24px" xml:space="preserve" y="0.8em" fill="#cccccc" text-anchor="middle" pointer-events="none" font-family="Open Sans" font-weight="normal" transform="matrix(1,0,0,1,0,-24.200000762939453)"><tspan  dy="0">convert monetary</tspan><tspan dy="1.2em" x="0" >amounts</tspan></text></g><g id="v-857"  label-idx="1" cursor="move" transform="matrix(1,0,0,1,1814.5,1685.9000244140625)" style="cursor: default; opacity: 1;"><rect joint-selector="rect" id="v-861" fill="#ffffff" rx="3" ry="3"  width="0" height="0" transform="matrix(1,0,0,1,0,0)" display="none"></rect><text joint-selector="text" id="v-860" fill="#000000" font-size="14" text-anchor="middle" pointer-events="none"></text></g></g><g  display="none"></g><g  id="v-866" display="none"><g  id="v-854"><path  end="source" d="M 26 0 L 0 13 L 26 26 z"></path></g><g  id="v-855"><path  end="target" d="M 26 0 L 0 13 L 26 26 z"></path></g></g><g  id="v-865" display="none"><g  id="v-853" transform="translate(1696.9784535991114, 1663.6872746579395) "><g  event="remove"><circle r="11"></circle><path transform="scale(.8) translate(-16, -16)" d="M24.778,21.419 19.276,15.917 24.777,10.415 21.949,7.585 16.447,13.087 10.945,7.585 8.117,10.415 13.618,15.917 8.116,21.419 10.946,24.248 16.447,18.746 21.948,24.248z"></path><title>Remove link.</title></g><g  event="link:options"><circle r="11" transform="translate(25)"></circle><path fill="white" transform="scale(.55) translate(29, -16)" d="M31.229,17.736c0.064-0.571,0.104-1.148,0.104-1.736s-0.04-1.166-0.104-1.737l-4.377-1.557c-0.218-0.716-0.504-1.401-0.851-2.05l1.993-4.192c-0.725-0.91-1.549-1.734-2.458-2.459l-4.193,1.994c-0.647-0.347-1.334-0.632-2.049-0.849l-1.558-4.378C17.165,0.708,16.588,0.667,16,0.667s-1.166,0.041-1.737,0.105L12.707,5.15c-0.716,0.217-1.401,0.502-2.05,0.849L6.464,4.005C5.554,4.73,4.73,5.554,4.005,6.464l1.994,4.192c-0.347,0.648-0.632,1.334-0.849,2.05l-4.378,1.557C0.708,14.834,0.667,15.412,0.667,16s0.041,1.165,0.105,1.736l4.378,1.558c0.217,0.715,0.502,1.401,0.849,2.049l-1.994,4.193c0.725,0.909,1.549,1.733,2.459,2.458l4.192-1.993c0.648,0.347,1.334,0.633,2.05,0.851l1.557,4.377c0.571,0.064,1.148,0.104,1.737,0.104c0.588,0,1.165-0.04,1.736-0.104l1.558-4.377c0.715-0.218,1.399-0.504,2.049-0.851l4.193,1.993c0.909-0.725,1.733-1.549,2.458-2.458l-1.993-4.193c0.347-0.647,0.633-1.334,0.851-2.049L31.229,17.736zM16,20.871c-2.69,0-4.872-2.182-4.872-4.871c0-2.69,2.182-4.872,4.872-4.872c2.689,0,4.871,2.182,4.871,4.872C20.871,18.689,18.689,20.871,16,20.871z"></path><title>Link options.</title></g></g></g></g><!--z-index:37--><g   id="j_74" ><path  stroke="#cccccc" d="M 741 367 L 1353 1522" id="v-879" stroke-width="2" stroke-dasharray="8 8" fill="none" style="opacity: 1;"></path><path  fill="black" stroke="black" d="M 0 0 0 0" transform="matrix(0.4677498936653137,0.8838608860969543,-0.8838608860969543,0.4677498936653137,741.3800048828125,367)"></path><path  fill="#cccccc" stroke="#cccccc" d="M 20 0 L 0 10 L 20 20 z" id="v-881" transform="matrix(-0.4677498936653137,-0.8838608860969543,0.8838608860969543,-0.4677498936653137,1343.7813720703125,1526.677490234375)" style="opacity: 1;"></path><path  d="M 741 367 L 1353 1522" id="v-880" fill="none" style="cursor: default;"></path><g ><g id="v-873"  label-idx="0" cursor="move" transform="matrix(1,0,0,1,1047,944.5)" style="cursor: default; opacity: 1;"><rect joint-selector="rect" id="v-876" fill="#111111" rx="3" ry="3" pointer-events="none" width="191.11585998535156" height="32.85659408569336" transform="matrix(1,0,0,1,-95.5999984741211,-16.399999618530273)"></rect><text joint-selector="text" id="v-875" font-size="24px" xml:space="preserve" y="0.8em" fill="#cccccc" text-anchor="middle" pointer-events="none" font-family="Open Sans" font-weight="normal" transform="matrix(1,0,0,1,0,-9.800000190734863)"><tspan  dy="0">Prints reports via</tspan></text></g><g id="v-874"  label-idx="1" cursor="move" transform="matrix(1,0,0,1,1037,956.5)" style="cursor: default; opacity: 1;"><rect joint-selector="rect" id="v-878" fill="#ffffff" rx="3" ry="3"  width="0" height="0" transform="matrix(1,0,0,1,0,0)" display="none"></rect><text joint-selector="text" id="v-877" fill="#000000" font-size="14" text-anchor="middle" pointer-events="none"></text></g></g><g  display="none"></g><g  id="v-883" display="none"><g  id="v-871"><path  end="source" d="M 26 0 L 0 13 L 26 26 z"></path></g><g  id="v-872"><path  end="target" d="M 26 0 L 0 13 L 26 26 z"></path></g></g><g  id="v-882" display="none"><g  id="v-870" transform="translate(759.728161781118, 402.3448151261295) "><g  event="remove"><circle r="11"></circle><path transform="scale(.8) translate(-16, -16)" d="M24.778,21.419 19.276,15.917 24.777,10.415 21.949,7.585 16.447,13.087 10.945,7.585 8.117,10.415 13.618,15.917 8.116,21.419 10.946,24.248 16.447,18.746 21.948,24.248z"></path><title>Remove link.</title></g><g  event="link:options"><circle r="11" transform="translate(25)"></circle><path fill="white" transform="scale(.55) translate(29, -16)" d="M31.229,17.736c0.064-0.571,0.104-1.148,0.104-1.736s-0.04-1.166-0.104-1.737l-4.377-1.557c-0.218-0.716-0.504-1.401-0.851-2.05l1.993-4.192c-0.725-0.91-1.549-1.734-2.458-2.459l-4.193,1.994c-0.647-0.347-1.334-0.632-2.049-0.849l-1.558-4.378C17.165,0.708,16.588,0.667,16,0.667s-1.166,0.041-1.737,0.105L12.707,5.15c-0.716,0.217-1.401,0.502-2.05,0.849L6.464,4.005C5.554,4.73,4.73,5.554,4.005,6.464l1.994,4.192c-0.347,0.648-0.632,1.334-0.849,2.05l-4.378,1.557C0.708,14.834,0.667,15.412,0.667,16s0.041,1.165,0.105,1.736l4.378,1.558c0.217,0.715,0.502,1.401,0.849,2.049l-1.994,4.193c0.725,0.909,1.549,1.733,2.459,2.458l4.192-1.993c0.648,0.347,1.334,0.633,2.05,0.851l1.557,4.377c0.571,0.064,1.148,0.104,1.737,0.104c0.588,0,1.165-0.04,1.736-0.104l1.558-4.377c0.715-0.218,1.399-0.504,2.049-0.851l4.193,1.993c0.909-0.725,1.733-1.549,2.458-2.458l-1.993-4.193c0.347-0.647,0.633-1.334,0.851-2.049L31.229,17.736zM16,20.871c-2.69,0-4.872-2.182-4.872-4.871c0-2.69,2.182-4.872,4.872-4.872c2.689,0,4.871,2.182,4.871,4.872C20.871,18.689,18.689,20.871,16,20.871z"></path><title>Link options.</title></g></g></g></g><!--z-index:38--><!--z-index:39--><!--z-index:40--></g><g ></g><g ></g><g ></g></g></svg>