<svg xmlns="http://www.w3.org/2000/svg" xmlns:xlink="http://www.w3.org/1999/xlink" version="1.1" viewBox="0 0 3508 2480" style="background: #111111"><defs joint-selector="defs"></defs><g  joint-selector="layers" transform="matrix(1,0,0,1,0,0)"><g ></g><g ><!--z-index:1--><!--z-index:2--><!--z-index:3--><!--z-index:4--><!--z-index:5--><!--z-index:6--><!--z-index:7--><!--z-index:8--><!--z-index:9--><!--z-index:10--><!--z-index:11--><!--z-index:12--><!--z-index:13--><!--z-index:14--><!--z-index:15--><!--z-index:16--><!--z-index:17--><!--z-index:18--><!--z-index:19--><!--z-index:20--><!--z-index:21--><g   id="j_39"  transform="translate(20,2436)"><g id="v-450"><text  id="v-451" font-size="24px" xml:space="preserve" y="0.8em" font-weight="normal" text-anchor="start" fill="#cccccc" pointer-events="none" display="block" font-family="Open Sans"><tspan  dy="0" display="block">Monday, November 3, 2025 at 3:42 PM Central European Standard Time</tspan></text></g></g><!--z-index:22--><g   id="j_38"  transform="translate(20,2390)"><g id="v-448"><text  id="v-449" font-size="36px" xml:space="preserve" y="0.8em" font-weight="normal" text-anchor="start" fill="#cccccc" pointer-events="none" display="block" font-family="Open Sans"><tspan  dy="0" display="block">Component View: Tastyworks Tax Calculator - CLI Application</tspan></text></g></g><!--z-index:23--><g   id="j_42"  transform="translate(415,5)" style=""><g id="v-473"><rect  id="v-474" width="2340" height="1693" rx="0" ry="0" stroke-width="2" pointer-events="none" stroke="#cccccc" fill="#111111" stroke-dasharray=""></rect><text  id="v-475" font-size="33.599999999999994px" xml:space="preserve" y="1654" font-weight="bold" text-anchor="start" pointer-events="visible" font-family="Open Sans" fill="#cccccc" transform="matrix(1,0,0,1,15,0)"><tspan  dy="0">Tastyworks Tax Calculator</tspan></text><text  id="v-476" font-size="16.799999999999997px" xml:space="preserve" y="1678" font-weight="normal" text-anchor="start" pointer-events="visible" font-family="Open Sans" fill="#cccccc" transform="matrix(1,0,0,1,15,0)"><tspan  dy="0">[Software System]</tspan></text><image  id="v-477" pointer-events="visible"></image></g></g><!--z-index:24--><g   id="j_41"  transform="translate(435,25)" style=""><g id="v-468"><rect  id="v-469" width="2300" height="1574" rx="0" ry="0" stroke-width="2" pointer-events="none" stroke="#cccccc" fill="#111111" stroke-dasharray=""></rect><text  id="v-470" font-size="33.599999999999994px" xml:space="preserve" y="1535" font-weight="bold" text-anchor="start" pointer-events="visible" font-family="Open Sans" fill="#cccccc" transform="matrix(1,0,0,1,15,0)"><tspan  dy="0">CLI Application</tspan></text><text  id="v-471" font-size="16.799999999999997px" xml:space="preserve" y="1559" font-weight="normal" text-anchor="start" pointer-events="visible" font-family="Open Sans" fill="#cccccc" transform="matrix(1,0,0,1,15,0)"><tspan  dy="0">[Container]</tspan></text><image  id="v-472" pointer-events="visible"></image></g></g><!--z-index:25--><g   id="j_40"  transform="translate(1795,45)" style=""><g  id="v-461" style="opacity: 1;"><rect  id="v-462" rx="20" ry="20" stroke-width="2" pointer-events="visiblePainted" fill="#1168bd" stroke="#0f5eaa" stroke-dasharray="" width="450" height="300"></rect><text  id="v-463" font-size="33.599999999999994px" xml:space="preserve" y="86.9" font-weight="bold" text-anchor="middle" pointer-events="visible" font-family="Open Sans" fill="#ffffff" dominant-baseline="hanging" transform="matrix(1,0,0,1,225,0)"><tspan  dy="0">ApplicationRunner</tspan></text><text  id="v-464" font-size="16.799999999999997px" xml:space="preserve" y="128.5" text-anchor="middle" font-family="Open Sans" fill="#ffffff" dominant-baseline="hanging" transform="matrix(1,0,0,1,225,0)" style="display: block;"><tspan  dy="0">[Component: Kotlin/Spring Boot]</tspan></text><text  id="v-465" font-size="24px" xml:space="preserve" y="160.3" text-anchor="middle" font-family="Open Sans" fill="#ffffff" dominant-baseline="hanging" transform="matrix(1,0,0,1,225,0)" style="display: block;"><tspan  dy="0">Main entry point, coordinates the</tspan><tspan dy="1.2em" x="0" >flow</tspan></text><g  id="v-466" color="#ffffff" transform="matrix(1,0,0,1,222.5,268)" display="none"><g ></g><g ></g><g ></g><g ></g></g><image  id="v-467"></image></g></g><!--z-index:26--><g   id="j_43"  transform="translate(2265,1030)" style=""><g  id="v-481" style="opacity: 1;"><rect  id="v-482" rx="1" ry="1" stroke-width="2" pointer-events="visiblePainted" fill="#85bbf0" stroke="#78a8d8" stroke-dasharray="" width="450" height="300"></rect><text  id="v-483" font-size="33.599999999999994px" xml:space="preserve" y="86.9" font-weight="bold" text-anchor="middle" pointer-events="visible" font-family="Open Sans" fill="#000000" dominant-baseline="hanging" transform="matrix(1,0,0,1,225,0)"><tspan  dy="0">Portfolio</tspan></text><text  id="v-484" font-size="16.799999999999997px" xml:space="preserve" y="128.5" text-anchor="middle" font-family="Open Sans" fill="#000000" dominant-baseline="hanging" transform="matrix(1,0,0,1,225,0)" style="display: block;"><tspan  dy="0">[Component: Kotlin]</tspan></text><text  id="v-485" font-size="24px" xml:space="preserve" y="160.3" text-anchor="middle" font-family="Open Sans" fill="#000000" dominant-baseline="hanging" transform="matrix(1,0,0,1,225,0)" style="display: block;"><tspan  dy="0">Tracks and manages all trading</tspan><tspan dy="1.2em" x="0" >positions</tspan></text><g  id="v-486" color="#000000" transform="matrix(1,0,0,1,222.5,268)" display="none"><g ></g><g ></g><g ></g><g ></g></g><image  id="v-487"></image></g></g><!--z-index:27--><g   id="j_44"  transform="translate(455,520)" style=""><g  id="v-491" style="opacity: 1;"><rect  id="v-492" rx="1" ry="1" stroke-width="2" pointer-events="visiblePainted" fill="#85bbf0" stroke="#78a8d8" stroke-dasharray="" width="450" height="300"></rect><text  id="v-493" font-size="33.599999999999994px" xml:space="preserve" y="86.9" font-weight="bold" text-anchor="middle" pointer-events="visible" font-family="Open Sans" fill="#000000" dominant-baseline="hanging" transform="matrix(1,0,0,1,225,0)"><tspan  dy="0">FiscalYear</tspan></text><text  id="v-494" font-size="16.799999999999997px" xml:space="preserve" y="128.5" text-anchor="middle" font-family="Open Sans" fill="#000000" dominant-baseline="hanging" transform="matrix(1,0,0,1,225,0)" style="display: block;"><tspan  dy="0">[Component: Kotlin]</tspan></text><text  id="v-495" font-size="24px" xml:space="preserve" y="160.3" text-anchor="middle" font-family="Open Sans" fill="#000000" dominant-baseline="hanging" transform="matrix(1,0,0,1,225,0)" style="display: block;"><tspan  dy="0">Manages tax calculations across</tspan><tspan dy="1.2em" x="0" >fiscal years</tspan></text><g  id="v-496" color="#000000" transform="matrix(1,0,0,1,222.5,268)" display="none"><g ></g><g ></g><g ></g><g ></g></g><image  id="v-497"></image></g></g><!--z-index:28--><g   id="j_45"  transform="translate(1780,500)" style=""><g  id="v-501" style="opacity: 1;"><rect  id="v-502" rx="1" ry="1" stroke-width="2" pointer-events="visiblePainted" fill="#a8c5e0" stroke="#97b1ca" stroke-dasharray="" width="450" height="300"></rect><text  id="v-503" font-size="33.599999999999994px" xml:space="preserve" y="86.9" font-weight="bold" text-anchor="middle" pointer-events="visible" font-family="Open Sans" fill="#000000" dominant-baseline="hanging" transform="matrix(1,0,0,1,225,0)"><tspan  dy="0">SnapshotService</tspan></text><text  id="v-504" font-size="16.799999999999997px" xml:space="preserve" y="128.5" text-anchor="middle" font-family="Open Sans" fill="#000000" dominant-baseline="hanging" transform="matrix(1,0,0,1,225,0)" style="display: block;"><tspan  dy="0">[Component: Kotlin]</tspan></text><text  id="v-505" font-size="24px" xml:space="preserve" y="160.3" text-anchor="middle" font-family="Open Sans" fill="#000000" dominant-baseline="hanging" transform="matrix(1,0,0,1,225,0)" style="display: block;"><tspan  dy="0">Saves and restores application</tspan><tspan dy="1.2em" x="0" >state as JSON</tspan></text><g  id="v-506" color="#000000" transform="matrix(1,0,0,1,222.5,268)" display="none"><g ></g><g ></g><g ></g><g ></g></g><image  id="v-507"></image></g></g><!--z-index:29--><g   id="j_46"  transform="translate(1215,1200)" style=""><g  id="v-514" style="opacity: 1;"><ellipse  id="v-515" stroke-width="2" pointer-events="visiblePainted" fill="#90ee90" stroke="#82d682" stroke-dasharray="" cx="225" cy="150" rx="225" ry="150"></ellipse><text  id="v-516" font-size="33.599999999999994px" xml:space="preserve" y="86.9" font-weight="bold" text-anchor="middle" pointer-events="visible" font-family="Open Sans" fill="#000000" dominant-baseline="hanging" transform="matrix(1,0,0,1,225,0)"><tspan  dy="0">Position Events</tspan></text><text  id="v-517" font-size="16.799999999999997px" xml:space="preserve" y="128.5" text-anchor="middle" font-family="Open Sans" fill="#000000" dominant-baseline="hanging" transform="matrix(1,0,0,1,225,0)" style="display: block;"><tspan  dy="0">[Component: Events]</tspan></text><text  id="v-518" font-size="24px" xml:space="preserve" y="160.3" text-anchor="middle" font-family="Open Sans" fill="#000000" dominant-baseline="hanging" transform="matrix(1,0,0,1,225,0)" style="display: block;"><tspan  dy="0">PositionOpenedEvent,</tspan><tspan dy="1.2em" x="0" >PositionClosedEvent, etc.</tspan></text><g  id="v-519" font-weight="normal" text-anchor="middle" color="#000000" transform="matrix(1,0,0,1,222.1999969482422,268)" display="none"><g ></g><g ></g><g ></g><g ></g></g><image  id="v-520"></image></g></g><!--z-index:30--><g   id="j_47"  transform="translate(1130,760)" style=""><g  id="v-527" style="opacity: 1;"><ellipse  id="v-528" stroke-width="2" pointer-events="visiblePainted" fill="#90ee90" stroke="#82d682" stroke-dasharray="" cx="225" cy="150" rx="225" ry="150"></ellipse><text  id="v-529" font-size="33.599999999999994px" xml:space="preserve" y="72.5" font-weight="bold" text-anchor="middle" pointer-events="visible" font-family="Open Sans" fill="#000000" dominant-baseline="hanging" transform="matrix(1,0,0,1,225,0)"><tspan  dy="0">ProfitLoss Events</tspan></text><text  id="v-530" font-size="16.799999999999997px" xml:space="preserve" y="114.1" text-anchor="middle" font-family="Open Sans" fill="#000000" dominant-baseline="hanging" transform="matrix(1,0,0,1,225,0)" style="display: block;"><tspan  dy="0">[Component: Events]</tspan></text><text  id="v-531" font-size="24px" xml:space="preserve" y="145.89999999999998" text-anchor="middle" font-family="Open Sans" fill="#000000" dominant-baseline="hanging" transform="matrix(1,0,0,1,225,0)" style="display: block;"><tspan  dy="0">OptionProfitEvent,</tspan><tspan dy="1.2em" x="0" >OptionLossEvent,</tspan><tspan dy="1.2em" x="0" >StockProfitEvent</tspan></text><g  id="v-532" font-weight="normal" text-anchor="middle" color="#000000" transform="matrix(1,0,0,1,222.1999969482422,268)" display="none"><g ></g><g ></g><g ></g><g ></g></g><image  id="v-533"></image></g></g><!--z-index:31--><g   id="j_48" ><path  stroke="#cccccc" d="M 2015 345 L 2010 500" id="v-546" stroke-width="2" stroke-dasharray="8 8" fill="none" style="opacity: 1;"></path><path  fill="black" stroke="black" d="M 0 0 0 0" transform="matrix(-0.032885439693927765,0.9994591474533081,-0.9994591474533081,-0.032885439693927765,2015.050048828125,345)"></path><path  fill="#cccccc" stroke="#cccccc" d="M 20 0 L 0 10 L 20 20 z" id="v-548" transform="matrix(0.032885175198316574,-0.9994591474533081,0.9994591474533081,0.032885175198316574,1999.955322265625,499.671142578125)" style="opacity: 1;"></path><path  d="M 2015 345 L 2010 500" id="v-547" fill="none" style="cursor: default;"></path><g ><g id="v-540"  label-idx="0" cursor="move" transform="matrix(1,0,0,1,2012.5,422.5)" style="cursor: default; opacity: 1;"><rect joint-selector="rect" id="v-543" fill="#111111" rx="3" ry="3" pointer-events="none" width="177.54931640625" height="32.51570510864258" transform="matrix(1,0,0,1,-88.69999694824219,-16.200000762939453)"></rect><text joint-selector="text" id="v-542" font-size="24px" xml:space="preserve" y="0.8em" fill="#cccccc" text-anchor="middle" pointer-events="none" font-family="Open Sans" font-weight="normal" transform="matrix(1,0,0,1,0,-9.699999809265137)"><tspan  dy="0">Load/Save state</tspan></text></g><g id="v-541"  label-idx="1" cursor="move" transform="matrix(1,0,0,1,2002.5,434.5)" style="cursor: default; opacity: 1;"><rect joint-selector="rect" id="v-545" fill="#ffffff" rx="3" ry="3"  width="0" height="0" transform="matrix(1,0,0,1,0,0)" display="none"></rect><text joint-selector="text" id="v-544" fill="#000000" font-size="14" text-anchor="middle" pointer-events="none"></text></g></g><g  display="none"></g><g  id="v-550" display="none"><g  id="v-538"><path  end="source" d="M 26 0 L 0 13 L 26 26 z"></path></g><g  id="v-539"><path  end="target" d="M 26 0 L 0 13 L 26 26 z"></path></g></g><g  id="v-549" display="none"><g  id="v-537" transform="translate(2013.7103482395619, 384.97920457358805) "><g  event="remove"><circle r="11"></circle><path transform="scale(.8) translate(-16, -16)" d="M24.778,21.419 19.276,15.917 24.777,10.415 21.949,7.585 16.447,13.087 10.945,7.585 8.117,10.415 13.618,15.917 8.116,21.419 10.946,24.248 16.447,18.746 21.948,24.248z"></path><title>Remove link.</title></g><g  event="link:options"><circle r="11" transform="translate(25)"></circle><path fill="white" transform="scale(.55) translate(29, -16)" d="M31.229,17.736c0.064-0.571,0.104-1.148,0.104-1.736s-0.04-1.166-0.104-1.737l-4.377-1.557c-0.218-0.716-0.504-1.401-0.851-2.05l1.993-4.192c-0.725-0.91-1.549-1.734-2.458-2.459l-4.193,1.994c-0.647-0.347-1.334-0.632-2.049-0.849l-1.558-4.378C17.165,0.708,16.588,0.667,16,0.667s-1.166,0.041-1.737,0.105L12.707,5.15c-0.716,0.217-1.401,0.502-2.05,0.849L6.464,4.005C5.554,4.73,4.73,5.554,4.005,6.464l1.994,4.192c-0.347,0.648-0.632,1.334-0.849,2.05l-4.378,1.557C0.708,14.834,0.667,15.412,0.667,16s0.041,1.165,0.105,1.736l4.378,1.558c0.217,0.715,0.502,1.401,0.849,2.049l-1.994,4.193c0.725,0.909,1.549,1.733,2.459,2.458l4.192-1.993c0.648,0.347,1.334,0.633,2.05,0.851l1.557,4.377c0.571,0.064,1.148,0.104,1.737,0.104c0.588,0,1.165-0.04,1.736-0.104l1.558-4.377c0.715-0.218,1.399-0.504,2.049-0.851l4.193,1.993c0.909-0.725,1.733-1.549,2.458-2.458l-1.993-4.193c0.347-0.647,0.633-1.334,0.851-2.049L31.229,17.736zM16,20.871c-2.69,0-4.872-2.182-4.872-4.871c0-2.69,2.182-4.872,4.872-4.872c2.689,0,4.871,2.182,4.871,4.872C20.871,18.689,18.689,20.871,16,20.871z"></path><title>Link options.</title></g></g></g></g><!--z-index:32--><g   id="j_49" ><path  stroke="#cccccc" d="M 2142 800 L 2353 1030" id="v-560" stroke-width="2" stroke-dasharray="8 8" fill="none" style="opacity: 1;"></path><path  fill="black" stroke="black" d="M 0 0 0 0" transform="matrix(0.6751085519790649,0.737718403339386,-0.737718403339386,0.6751085519790649,2142.260009765625,800)"></path><path  fill="#cccccc" stroke="#cccccc" d="M 20 0 L 0 10 L 20 20 z" id="v-562" transform="matrix(-0.6751086115837097,-0.7377183437347412,0.7377183437347412,-0.6751086115837097,2345.363037109375,1036.7510986328125)" style="opacity: 1;"></path><path  d="M 2142 800 L 2353 1030" id="v-561" fill="none" style="cursor: default;"></path><g ><g id="v-554"  label-idx="0" cursor="move" transform="matrix(1,0,0,1,2247.5,915)" style="cursor: default; opacity: 1;"><rect joint-selector="rect" id="v-557" fill="#111111" rx="3" ry="3" pointer-events="none" width="97.47937774658203" height="32.51570510864258" transform="matrix(1,0,0,1,-48.70000076293945,-16.200000762939453)"></rect><text joint-selector="text" id="v-556" font-size="24px" xml:space="preserve" y="0.8em" fill="#cccccc" text-anchor="middle" pointer-events="none" font-family="Open Sans" font-weight="normal" transform="matrix(1,0,0,1,0,-9.699999809265137)"><tspan  dy="0">Restores</tspan></text></g><g id="v-555"  label-idx="1" cursor="move" transform="matrix(1,0,0,1,2237.5,927)" style="cursor: default; opacity: 1;"><rect joint-selector="rect" id="v-559" fill="#ffffff" rx="3" ry="3"  width="0" height="0" transform="matrix(1,0,0,1,0,0)" display="none"></rect><text joint-selector="text" id="v-558" fill="#000000" font-size="14" text-anchor="middle" pointer-events="none"></text></g></g><g  display="none"></g><g  id="v-564" display="none"><g  id="v-552"><path  end="source" d="M 26 0 L 0 13 L 26 26 z"></path></g><g  id="v-553"><path  end="target" d="M 26 0 L 0 13 L 26 26 z"></path></g></g><g  id="v-563" display="none"><g  id="v-551" transform="translate(2169.0405894877536, 829.4755240861768) "><g  event="remove"><circle r="11"></circle><path transform="scale(.8) translate(-16, -16)" d="M24.778,21.419 19.276,15.917 24.777,10.415 21.949,7.585 16.447,13.087 10.945,7.585 8.117,10.415 13.618,15.917 8.116,21.419 10.946,24.248 16.447,18.746 21.948,24.248z"></path><title>Remove link.</title></g><g  event="link:options"><circle r="11" transform="translate(25)"></circle><path fill="white" transform="scale(.55) translate(29, -16)" d="M31.229,17.736c0.064-0.571,0.104-1.148,0.104-1.736s-0.04-1.166-0.104-1.737l-4.377-1.557c-0.218-0.716-0.504-1.401-0.851-2.05l1.993-4.192c-0.725-0.91-1.549-1.734-2.458-2.459l-4.193,1.994c-0.647-0.347-1.334-0.632-2.049-0.849l-1.558-4.378C17.165,0.708,16.588,0.667,16,0.667s-1.166,0.041-1.737,0.105L12.707,5.15c-0.716,0.217-1.401,0.502-2.05,0.849L6.464,4.005C5.554,4.73,4.73,5.554,4.005,6.464l1.994,4.192c-0.347,0.648-0.632,1.334-0.849,2.05l-4.378,1.557C0.708,14.834,0.667,15.412,0.667,16s0.041,1.165,0.105,1.736l4.378,1.558c0.217,0.715,0.502,1.401,0.849,2.049l-1.994,4.193c0.725,0.909,1.549,1.733,2.459,2.458l4.192-1.993c0.648,0.347,1.334,0.633,2.05,0.851l1.557,4.377c0.571,0.064,1.148,0.104,1.737,0.104c0.588,0,1.165-0.04,1.736-0.104l1.558-4.377c0.715-0.218,1.399-0.504,2.049-0.851l4.193,1.993c0.909-0.725,1.733-1.549,2.458-2.458l-1.993-4.193c0.347-0.647,0.633-1.334,0.851-2.049L31.229,17.736zM16,20.871c-2.69,0-4.872-2.182-4.872-4.871c0-2.69,2.182-4.872,4.872-4.872c2.689,0,4.871,2.182,4.871,4.872C20.871,18.689,18.689,20.871,16,20.871z"></path><title>Link options.</title></g></g></g></g><!--z-index:33--><g   id="j_50" ><path  stroke="#cccccc" d="M 1780 653 L 905 667" id="v-574" stroke-width="2" stroke-dasharray="8 8" fill="none" style="opacity: 1;"></path><path  fill="black" stroke="black" d="M 0 0 0 0" transform="matrix(-0.9998862147331238,0.015084104612469673,-0.015084104612469673,-0.9998862147331238,1780,653.4000244140625)"></path><path  fill="#cccccc" stroke="#cccccc" d="M 20 0 L 0 10 L 20 20 z" id="v-576" transform="matrix(0.9998862147331238,-0.015084104612469673,0.015084104612469673,0.9998862147331238,904.84912109375,656.6011352539062)" style="opacity: 1;"></path><path  d="M 1780 653 L 905 667" id="v-575" fill="none" style="cursor: default;"></path><g ><g id="v-568"  label-idx="0" cursor="move" transform="matrix(1,0,0,1,1342.5,660)" style="cursor: default; opacity: 1;"><rect joint-selector="rect" id="v-571" fill="#111111" rx="3" ry="3" pointer-events="none" width="97.47937774658203" height="32.51570510864258" transform="matrix(1,0,0,1,-48.70000076293945,-16.200000762939453)"></rect><text joint-selector="text" id="v-570" font-size="24px" xml:space="preserve" y="0.8em" fill="#cccccc" text-anchor="middle" pointer-events="none" font-family="Open Sans" font-weight="normal" transform="matrix(1,0,0,1,0,-9.699999809265137)"><tspan  dy="0">Restores</tspan></text></g><g id="v-569"  label-idx="1" cursor="move" transform="matrix(1,0,0,1,1332.5,672)" style="cursor: default; opacity: 1;"><rect joint-selector="rect" id="v-573" fill="#ffffff" rx="3" ry="3"  width="0" height="0" transform="matrix(1,0,0,1,0,0)" display="none"></rect><text joint-selector="text" id="v-572" fill="#000000" font-size="14" text-anchor="middle" pointer-events="none"></text></g></g><g  display="none"></g><g  id="v-578" display="none"><g  id="v-566"><path  end="source" d="M 26 0 L 0 13 L 26 26 z"></path></g><g  id="v-567"><path  end="target" d="M 26 0 L 0 13 L 26 26 z"></path></g></g><g  id="v-577" display="none"><g  id="v-565" transform="translate(1740.0051190171696, 653.6399180957253) "><g  event="remove"><circle r="11"></circle><path transform="scale(.8) translate(-16, -16)" d="M24.778,21.419 19.276,15.917 24.777,10.415 21.949,7.585 16.447,13.087 10.945,7.585 8.117,10.415 13.618,15.917 8.116,21.419 10.946,24.248 16.447,18.746 21.948,24.248z"></path><title>Remove link.</title></g><g  event="link:options"><circle r="11" transform="translate(25)"></circle><path fill="white" transform="scale(.55) translate(29, -16)" d="M31.229,17.736c0.064-0.571,0.104-1.148,0.104-1.736s-0.04-1.166-0.104-1.737l-4.377-1.557c-0.218-0.716-0.504-1.401-0.851-2.05l1.993-4.192c-0.725-0.91-1.549-1.734-2.458-2.459l-4.193,1.994c-0.647-0.347-1.334-0.632-2.049-0.849l-1.558-4.378C17.165,0.708,16.588,0.667,16,0.667s-1.166,0.041-1.737,0.105L12.707,5.15c-0.716,0.217-1.401,0.502-2.05,0.849L6.464,4.005C5.554,4.73,4.73,5.554,4.005,6.464l1.994,4.192c-0.347,0.648-0.632,1.334-0.849,2.05l-4.378,1.557C0.708,14.834,0.667,15.412,0.667,16s0.041,1.165,0.105,1.736l4.378,1.558c0.217,0.715,0.502,1.401,0.849,2.049l-1.994,4.193c0.725,0.909,1.549,1.733,2.459,2.458l4.192-1.993c0.648,0.347,1.334,0.633,2.05,0.851l1.557,4.377c0.571,0.064,1.148,0.104,1.737,0.104c0.588,0,1.165-0.04,1.736-0.104l1.558-4.377c0.715-0.218,1.399-0.504,2.049-0.851l4.193,1.993c0.909-0.725,1.733-1.549,2.458-2.458l-1.993-4.193c0.347-0.647,0.633-1.334,0.851-2.049L31.229,17.736zM16,20.871c-2.69,0-4.872-2.182-4.872-4.871c0-2.69,2.182-4.872,4.872-4.872c2.689,0,4.871,2.182,4.871,4.872C20.871,18.689,18.689,20.871,16,20.871z"></path><title>Link options.</title></g></g></g></g><!--z-index:34--><g   id="j_51" ><path  stroke="#cccccc" d="M 2265 1216 L 1665 1314" id="v-588" stroke-width="2" stroke-dasharray="8 8" fill="none" style="opacity: 1;"></path><path  fill="black" stroke="black" d="M 0 0 0 0" transform="matrix(-0.9871463179588318,0.159819096326828,-0.159819096326828,-0.9871463179588318,2265,1216.4300537109375)"></path><path  fill="#cccccc" stroke="#cccccc" d="M 20 0 L 0 10 L 20 20 z" id="v-590" transform="matrix(0.9871463775634766,-0.1598188281059265,0.1598188281059265,0.9871463775634766,1663.40185546875,1303.698486328125)" style="opacity: 1;"></path><path  d="M 2265 1216 L 1665 1314" id="v-589" fill="none" style="cursor: default;"></path><g ><g id="v-582"  label-idx="0" cursor="move" transform="matrix(1,0,0,1,1965,1265)" style="cursor: default; opacity: 1;"><rect joint-selector="rect" id="v-585" fill="#111111" rx="3" ry="3" pointer-events="none" width="107.05345153808594" height="32.51570510864258" transform="matrix(1,0,0,1,-53.5,-16.200000762939453)"></rect><text joint-selector="text" id="v-584" font-size="24px" xml:space="preserve" y="0.8em" fill="#cccccc" text-anchor="middle" pointer-events="none" font-family="Open Sans" font-weight="normal" transform="matrix(1,0,0,1,0,-9.699999809265137)"><tspan  dy="0">Publishes</tspan></text></g><g id="v-583"  label-idx="1" cursor="move" transform="matrix(1,0,0,1,1955,1277)" style="cursor: default; opacity: 1;"><rect joint-selector="rect" id="v-587" fill="#ffffff" rx="3" ry="3"  width="0" height="0" transform="matrix(1,0,0,1,0,0)" display="none"></rect><text joint-selector="text" id="v-586" fill="#000000" font-size="14" text-anchor="middle" pointer-events="none"></text></g></g><g  display="none"></g><g  id="v-592" display="none"><g  id="v-580"><path  end="source" d="M 26 0 L 0 13 L 26 26 z"></path></g><g  id="v-581"><path  end="target" d="M 26 0 L 0 13 L 26 26 z"></path></g></g><g  id="v-591" display="none"><g  id="v-579" transform="translate(2225.52311192136, 1222.447891719511) "><g  event="remove"><circle r="11"></circle><path transform="scale(.8) translate(-16, -16)" d="M24.778,21.419 19.276,15.917 24.777,10.415 21.949,7.585 16.447,13.087 10.945,7.585 8.117,10.415 13.618,15.917 8.116,21.419 10.946,24.248 16.447,18.746 21.948,24.248z"></path><title>Remove link.</title></g><g  event="link:options"><circle r="11" transform="translate(25)"></circle><path fill="white" transform="scale(.55) translate(29, -16)" d="M31.229,17.736c0.064-0.571,0.104-1.148,0.104-1.736s-0.04-1.166-0.104-1.737l-4.377-1.557c-0.218-0.716-0.504-1.401-0.851-2.05l1.993-4.192c-0.725-0.91-1.549-1.734-2.458-2.459l-4.193,1.994c-0.647-0.347-1.334-0.632-2.049-0.849l-1.558-4.378C17.165,0.708,16.588,0.667,16,0.667s-1.166,0.041-1.737,0.105L12.707,5.15c-0.716,0.217-1.401,0.502-2.05,0.849L6.464,4.005C5.554,4.73,4.73,5.554,4.005,6.464l1.994,4.192c-0.347,0.648-0.632,1.334-0.849,2.05l-4.378,1.557C0.708,14.834,0.667,15.412,0.667,16s0.041,1.165,0.105,1.736l4.378,1.558c0.217,0.715,0.502,1.401,0.849,2.049l-1.994,4.193c0.725,0.909,1.549,1.733,2.459,2.458l4.192-1.993c0.648,0.347,1.334,0.633,2.05,0.851l1.557,4.377c0.571,0.064,1.148,0.104,1.737,0.104c0.588,0,1.165-0.04,1.736-0.104l1.558-4.377c0.715-0.218,1.399-0.504,2.049-0.851l4.193,1.993c0.909-0.725,1.733-1.549,2.458-2.458l-1.993-4.193c0.347-0.647,0.633-1.334,0.851-2.049L31.229,17.736zM16,20.871c-2.69,0-4.872-2.182-4.872-4.871c0-2.69,2.182-4.872,4.872-4.872c2.689,0,4.871,2.182,4.871,4.872C20.871,18.689,18.689,20.871,16,20.871z"></path><title>Link options.</title></g></g></g></g><!--z-index:35--><g   id="j_52" ><path  stroke="#cccccc" d="M 848 820 L 1272 1200" id="v-602" stroke-width="2" stroke-dasharray="8 8" fill="none" style="opacity: 1;"></path><path  fill="black" stroke="black" d="M 0 0 0 0" transform="matrix(0.7452366948127747,0.6667999625205994,-0.6667999625205994,0.7452366948127747,847.6500244140625,820)"></path><path  fill="#cccccc" stroke="#cccccc" d="M 20 0 L 0 10 L 20 20 z" id="v-604" transform="matrix(-0.7452368140220642,-0.6667999029159546,0.6667999029159546,-0.7452368140220642,1265.6820068359375,1207.452392578125)" style="opacity: 1;"></path><path  d="M 848 820 L 1272 1200" id="v-603" fill="none" style="cursor: default;"></path><g ><g id="v-596"  label-idx="0" cursor="move" transform="matrix(1,0,0,1,1060,1010)" style="cursor: default; opacity: 1;"><rect joint-selector="rect" id="v-599" fill="#111111" rx="3" ry="3" pointer-events="none" width="101.00191497802734" height="32.51570510864258" transform="matrix(1,0,0,1,-50.5,-16.200000762939453)"></rect><text joint-selector="text" id="v-598" font-size="24px" xml:space="preserve" y="0.8em" fill="#cccccc" text-anchor="middle" pointer-events="none" font-family="Open Sans" font-weight="normal" transform="matrix(1,0,0,1,0,-9.699999809265137)"><tspan  dy="0">listens to</tspan></text></g><g id="v-597"  label-idx="1" cursor="move" transform="matrix(1,0,0,1,1050,1022)" style="cursor: default; opacity: 1;"><rect joint-selector="rect" id="v-601" fill="#ffffff" rx="3" ry="3"  width="0" height="0" transform="matrix(1,0,0,1,0,0)" display="none"></rect><text joint-selector="text" id="v-600" fill="#000000" font-size="14" text-anchor="middle" pointer-events="none"></text></g></g><g  display="none"></g><g  id="v-606" display="none"><g  id="v-594"><path  end="source" d="M 26 0 L 0 13 L 26 26 z"></path></g><g  id="v-595"><path  end="target" d="M 26 0 L 0 13 L 26 26 z"></path></g></g><g  id="v-605" display="none"><g  id="v-593" transform="translate(877.7875934833918, 846.6964281219078) "><g  event="remove"><circle r="11"></circle><path transform="scale(.8) translate(-16, -16)" d="M24.778,21.419 19.276,15.917 24.777,10.415 21.949,7.585 16.447,13.087 10.945,7.585 8.117,10.415 13.618,15.917 8.116,21.419 10.946,24.248 16.447,18.746 21.948,24.248z"></path><title>Remove link.</title></g><g  event="link:options"><circle r="11" transform="translate(25)"></circle><path fill="white" transform="scale(.55) translate(29, -16)" d="M31.229,17.736c0.064-0.571,0.104-1.148,0.104-1.736s-0.04-1.166-0.104-1.737l-4.377-1.557c-0.218-0.716-0.504-1.401-0.851-2.05l1.993-4.192c-0.725-0.91-1.549-1.734-2.458-2.459l-4.193,1.994c-0.647-0.347-1.334-0.632-2.049-0.849l-1.558-4.378C17.165,0.708,16.588,0.667,16,0.667s-1.166,0.041-1.737,0.105L12.707,5.15c-0.716,0.217-1.401,0.502-2.05,0.849L6.464,4.005C5.554,4.73,4.73,5.554,4.005,6.464l1.994,4.192c-0.347,0.648-0.632,1.334-0.849,2.05l-4.378,1.557C0.708,14.834,0.667,15.412,0.667,16s0.041,1.165,0.105,1.736l4.378,1.558c0.217,0.715,0.502,1.401,0.849,2.049l-1.994,4.193c0.725,0.909,1.549,1.733,2.459,2.458l4.192-1.993c0.648,0.347,1.334,0.633,2.05,0.851l1.557,4.377c0.571,0.064,1.148,0.104,1.737,0.104c0.588,0,1.165-0.04,1.736-0.104l1.558-4.377c0.715-0.218,1.399-0.504,2.049-0.851l4.193,1.993c0.909-0.725,1.733-1.549,2.458-2.458l-1.993-4.193c0.347-0.647,0.633-1.334,0.851-2.049L31.229,17.736zM16,20.871c-2.69,0-4.872-2.182-4.872-4.871c0-2.69,2.182-4.872,4.872-4.872c2.689,0,4.871,2.182,4.871,4.872C20.871,18.689,18.689,20.871,16,20.871z"></path><title>Link options.</title></g></g></g></g><!--z-index:36--><g   id="j_53" ><path  stroke="#cccccc" d="M 905 750 L 1130 830" id="v-616" stroke-width="2" stroke-dasharray="8 8" fill="none" style="opacity: 1;"></path><path  fill="black" stroke="black" d="M 0 0 0 0" transform="matrix(0.9422146677970886,0.3350096642971039,-0.3350096642971039,0.9422146677970886,905,750)"></path><path  fill="#cccccc" stroke="#cccccc" d="M 20 0 L 0 10 L 20 20 z" id="v-618" transform="matrix(-0.9422147274017334,-0.3350095748901367,0.3350095748901367,-0.9422147274017334,1126.64990234375,839.422119140625)" style="opacity: 1;"></path><path  d="M 905 750 L 1130 830" id="v-617" fill="none" style="cursor: default;"></path><g ><g id="v-610"  label-idx="0" cursor="move" transform="matrix(1,0,0,1,1017.5,790)" style="cursor: default; opacity: 1;"><rect joint-selector="rect" id="v-613" fill="#111111" rx="3" ry="3" pointer-events="none" width="107.27925109863281" height="32.51570510864258" transform="matrix(1,0,0,1,-53.599998474121094,-16.200000762939453)"></rect><text joint-selector="text" id="v-612" font-size="24px" xml:space="preserve" y="0.8em" fill="#cccccc" text-anchor="middle" pointer-events="none" font-family="Open Sans" font-weight="normal" transform="matrix(1,0,0,1,0,-9.699999809265137)"><tspan  dy="0">publishes</tspan></text></g><g id="v-611"  label-idx="1" cursor="move" transform="matrix(1,0,0,1,1007.5,802)" style="cursor: default; opacity: 1;"><rect joint-selector="rect" id="v-615" fill="#ffffff" rx="3" ry="3"  width="0" height="0" transform="matrix(1,0,0,1,0,0)" display="none"></rect><text joint-selector="text" id="v-614" fill="#000000" font-size="14" text-anchor="middle" pointer-events="none"></text></g></g><g  display="none"></g><g  id="v-620" display="none"><g  id="v-608"><path  end="source" d="M 26 0 L 0 13 L 26 26 z"></path></g><g  id="v-609"><path  end="target" d="M 26 0 L 0 13 L 26 26 z"></path></g></g><g  id="v-619" display="none"><g  id="v-607" transform="translate(942.6885876111656, 763.4003867061922) "><g  event="remove"><circle r="11"></circle><path transform="scale(.8) translate(-16, -16)" d="M24.778,21.419 19.276,15.917 24.777,10.415 21.949,7.585 16.447,13.087 10.945,7.585 8.117,10.415 13.618,15.917 8.116,21.419 10.946,24.248 16.447,18.746 21.948,24.248z"></path><title>Remove link.</title></g><g  event="link:options"><circle r="11" transform="translate(25)"></circle><path fill="white" transform="scale(.55) translate(29, -16)" d="M31.229,17.736c0.064-0.571,0.104-1.148,0.104-1.736s-0.04-1.166-0.104-1.737l-4.377-1.557c-0.218-0.716-0.504-1.401-0.851-2.05l1.993-4.192c-0.725-0.91-1.549-1.734-2.458-2.459l-4.193,1.994c-0.647-0.347-1.334-0.632-2.049-0.849l-1.558-4.378C17.165,0.708,16.588,0.667,16,0.667s-1.166,0.041-1.737,0.105L12.707,5.15c-0.716,0.217-1.401,0.502-2.05,0.849L6.464,4.005C5.554,4.73,4.73,5.554,4.005,6.464l1.994,4.192c-0.347,0.648-0.632,1.334-0.849,2.05l-4.378,1.557C0.708,14.834,0.667,15.412,0.667,16s0.041,1.165,0.105,1.736l4.378,1.558c0.217,0.715,0.502,1.401,0.849,2.049l-1.994,4.193c0.725,0.909,1.549,1.733,2.459,2.458l4.192-1.993c0.648,0.347,1.334,0.633,2.05,0.851l1.557,4.377c0.571,0.064,1.148,0.104,1.737,0.104c0.588,0,1.165-0.04,1.736-0.104l1.558-4.377c0.715-0.218,1.399-0.504,2.049-0.851l4.193,1.993c0.909-0.725,1.733-1.549,2.458-2.458l-1.993-4.193c0.347-0.647,0.633-1.334,0.851-2.049L31.229,17.736zM16,20.871c-2.69,0-4.872-2.182-4.872-4.871c0-2.69,2.182-4.872,4.872-4.872c2.689,0,4.871,2.182,4.871,4.872C20.871,18.689,18.689,20.871,16,20.871z"></path><title>Link options.</title></g></g></g></g><!--z-index:37--><g   id="j_54" ><path  stroke="#cccccc" d="M 1884 800 L 1561 1200" id="v-630" stroke-width="2" stroke-dasharray="8 8" fill="none" style="opacity: 1;"></path><path  fill="black" stroke="black" d="M 0 0 0 0" transform="matrix(-0.628081738948822,0.7781473994255066,-0.7781473994255066,-0.628081738948822,1883.9300537109375,800)"></path><path  fill="#cccccc" stroke="#cccccc" d="M 20 0 L 0 10 L 20 20 z" id="v-632" transform="matrix(0.6280815005302429,-0.7781475186347961,0.7781475186347961,0.6280815005302429,1553.28857421875,1193.7191162109375)" style="opacity: 1;"></path><path  d="M 1884 800 L 1561 1200" id="v-631" fill="none" style="cursor: default;"></path><g ><g id="v-624"  label-idx="0" cursor="move" transform="matrix(1,0,0,1,1722.5,1000)" style="cursor: default; opacity: 1;"><rect joint-selector="rect" id="v-627" fill="#111111" rx="3" ry="3" pointer-events="none" width="107.48247528076172" height="32.51570510864258" transform="matrix(1,0,0,1,-53.70000076293945,-16.200000762939453)"></rect><text joint-selector="text" id="v-626" font-size="24px" xml:space="preserve" y="0.8em" fill="#cccccc" text-anchor="middle" pointer-events="none" font-family="Open Sans" font-weight="normal" transform="matrix(1,0,0,1,0,-9.699999809265137)"><tspan  dy="0">Listens to</tspan></text></g><g id="v-625"  label-idx="1" cursor="move" transform="matrix(1,0,0,1,1712.5,1012)" style="cursor: default; opacity: 1;"><rect joint-selector="rect" id="v-629" fill="#ffffff" rx="3" ry="3"  width="0" height="0" transform="matrix(1,0,0,1,0,0)" display="none"></rect><text joint-selector="text" id="v-628" fill="#000000" font-size="14" text-anchor="middle" pointer-events="none"></text></g></g><g  display="none"></g><g  id="v-634" display="none"><g  id="v-622"><path  end="source" d="M 26 0 L 0 13 L 26 26 z"></path></g><g  id="v-623"><path  end="target" d="M 26 0 L 0 13 L 26 26 z"></path></g></g><g  id="v-633" display="none"><g  id="v-621" transform="translate(1858.8701377975858, 831.1205723868904) "><g  event="remove"><circle r="11"></circle><path transform="scale(.8) translate(-16, -16)" d="M24.778,21.419 19.276,15.917 24.777,10.415 21.949,7.585 16.447,13.087 10.945,7.585 8.117,10.415 13.618,15.917 8.116,21.419 10.946,24.248 16.447,18.746 21.948,24.248z"></path><title>Remove link.</title></g><g  event="link:options"><circle r="11" transform="translate(25)"></circle><path fill="white" transform="scale(.55) translate(29, -16)" d="M31.229,17.736c0.064-0.571,0.104-1.148,0.104-1.736s-0.04-1.166-0.104-1.737l-4.377-1.557c-0.218-0.716-0.504-1.401-0.851-2.05l1.993-4.192c-0.725-0.91-1.549-1.734-2.458-2.459l-4.193,1.994c-0.647-0.347-1.334-0.632-2.049-0.849l-1.558-4.378C17.165,0.708,16.588,0.667,16,0.667s-1.166,0.041-1.737,0.105L12.707,5.15c-0.716,0.217-1.401,0.502-2.05,0.849L6.464,4.005C5.554,4.73,4.73,5.554,4.005,6.464l1.994,4.192c-0.347,0.648-0.632,1.334-0.849,2.05l-4.378,1.557C0.708,14.834,0.667,15.412,0.667,16s0.041,1.165,0.105,1.736l4.378,1.558c0.217,0.715,0.502,1.401,0.849,2.049l-1.994,4.193c0.725,0.909,1.549,1.733,2.459,2.458l4.192-1.993c0.648,0.347,1.334,0.633,2.05,0.851l1.557,4.377c0.571,0.064,1.148,0.104,1.737,0.104c0.588,0,1.165-0.04,1.736-0.104l1.558-4.377c0.715-0.218,1.399-0.504,2.049-0.851l4.193,1.993c0.909-0.725,1.733-1.549,2.458-2.458l-1.993-4.193c0.347-0.647,0.633-1.334,0.851-2.049L31.229,17.736zM16,20.871c-2.69,0-4.872-2.182-4.872-4.871c0-2.69,2.182-4.872,4.872-4.872c2.689,0,4.871,2.182,4.871,4.872C20.871,18.689,18.689,20.871,16,20.871z"></path><title>Link options.</title></g></g></g></g><!--z-index:38--><g   id="j_55" ><path  stroke="#cccccc" d="M 1780 740 L 1580 820" id="v-644" stroke-width="2" stroke-dasharray="8 8" fill="none" style="opacity: 1;"></path><path  fill="black" stroke="black" d="M 0 0 0 0" transform="matrix(-0.9284766912460327,0.3713906407356262,-0.3713906407356262,-0.9284766912460327,1780,740)"></path><path  fill="#cccccc" stroke="#cccccc" d="M 20 0 L 0 10 L 20 20 z" id="v-646" transform="matrix(0.9284766316413879,-0.3713908791542053,0.3713908791542053,0.9284766316413879,1576.2861328125,810.7152099609375)" style="opacity: 1;"></path><path  d="M 1780 740 L 1580 820" id="v-645" fill="none" style="cursor: default;"></path><g ><g id="v-638"  label-idx="0" cursor="move" transform="matrix(1,0,0,1,1680,780)" style="cursor: default; opacity: 1;"><rect joint-selector="rect" id="v-641" fill="#111111" rx="3" ry="3" pointer-events="none" width="107.48247528076172" height="32.51570510864258" transform="matrix(1,0,0,1,-53.70000076293945,-16.200000762939453)"></rect><text joint-selector="text" id="v-640" font-size="24px" xml:space="preserve" y="0.8em" fill="#cccccc" text-anchor="middle" pointer-events="none" font-family="Open Sans" font-weight="normal" transform="matrix(1,0,0,1,0,-9.699999809265137)"><tspan  dy="0">Listens to</tspan></text></g><g id="v-639"  label-idx="1" cursor="move" transform="matrix(1,0,0,1,1670,792)" style="cursor: default; opacity: 1;"><rect joint-selector="rect" id="v-643" fill="#ffffff" rx="3" ry="3"  width="0" height="0" transform="matrix(1,0,0,1,0,0)" display="none"></rect><text joint-selector="text" id="v-642" fill="#000000" font-size="14" text-anchor="middle" pointer-events="none"></text></g></g><g  display="none"></g><g  id="v-648" display="none"><g  id="v-636"><path  end="source" d="M 26 0 L 0 13 L 26 26 z"></path></g><g  id="v-637"><path  end="target" d="M 26 0 L 0 13 L 26 26 z"></path></g></g><g  id="v-647" display="none"><g  id="v-635" transform="translate(1742.8609323645896, 754.8556270541642) "><g  event="remove"><circle r="11"></circle><path transform="scale(.8) translate(-16, -16)" d="M24.778,21.419 19.276,15.917 24.777,10.415 21.949,7.585 16.447,13.087 10.945,7.585 8.117,10.415 13.618,15.917 8.116,21.419 10.946,24.248 16.447,18.746 21.948,24.248z"></path><title>Remove link.</title></g><g  event="link:options"><circle r="11" transform="translate(25)"></circle><path fill="white" transform="scale(.55) translate(29, -16)" d="M31.229,17.736c0.064-0.571,0.104-1.148,0.104-1.736s-0.04-1.166-0.104-1.737l-4.377-1.557c-0.218-0.716-0.504-1.401-0.851-2.05l1.993-4.192c-0.725-0.91-1.549-1.734-2.458-2.459l-4.193,1.994c-0.647-0.347-1.334-0.632-2.049-0.849l-1.558-4.378C17.165,0.708,16.588,0.667,16,0.667s-1.166,0.041-1.737,0.105L12.707,5.15c-0.716,0.217-1.401,0.502-2.05,0.849L6.464,4.005C5.554,4.73,4.73,5.554,4.005,6.464l1.994,4.192c-0.347,0.648-0.632,1.334-0.849,2.05l-4.378,1.557C0.708,14.834,0.667,15.412,0.667,16s0.041,1.165,0.105,1.736l4.378,1.558c0.217,0.715,0.502,1.401,0.849,2.049l-1.994,4.193c0.725,0.909,1.549,1.733,2.459,2.458l4.192-1.993c0.648,0.347,1.334,0.633,2.05,0.851l1.557,4.377c0.571,0.064,1.148,0.104,1.737,0.104c0.588,0,1.165-0.04,1.736-0.104l1.558-4.377c0.715-0.218,1.399-0.504,2.049-0.851l4.193,1.993c0.909-0.725,1.733-1.549,2.458-2.458l-1.993-4.193c0.347-0.647,0.633-1.334,0.851-2.049L31.229,17.736zM16,20.871c-2.69,0-4.872-2.182-4.872-4.871c0-2.69,2.182-4.872,4.872-4.872c2.689,0,4.871,2.182,4.871,4.872C20.871,18.689,18.689,20.871,16,20.871z"></path><title>Link options.</title></g></g></g></g><!--z-index:39--><g   id="j_56" ><path  stroke="#cccccc" d="M 1795 275 L 905 590" id="v-661" stroke-width="2" stroke-dasharray="8 8" fill="none" style="opacity: 1;"></path><path  fill="black" stroke="black" d="M 0 0 0 0" transform="matrix(-0.9425366520881653,0.3341028094291687,-0.3341028094291687,-0.9425366520881653,1795,274.760009765625)"></path><path  fill="#cccccc" stroke="#cccccc" d="M 20 0 L 0 10 L 20 20 z" id="v-663" transform="matrix(0.9425367116928101,-0.3341025710105896,0.3341025710105896,0.9425367116928101,901.658935546875,580.8146362304688)" style="opacity: 1;"></path><path  d="M 1795 275 L 905 590" id="v-662" fill="none" style="cursor: default;"></path><g ><g id="v-655"  label-idx="0" cursor="move" transform="matrix(1,0,0,1,1350,432.5)" style="cursor: default; opacity: 1;"><rect joint-selector="rect" id="v-658" fill="#111111" rx="3" ry="3" pointer-events="none" width="191.09751892089844" height="32.51570510864258" transform="matrix(1,0,0,1,-95.5,-16.200000762939453)"></rect><text joint-selector="text" id="v-657" font-size="24px" xml:space="preserve" y="0.8em" fill="#cccccc" text-anchor="middle" pointer-events="none" font-family="Open Sans" font-weight="normal" transform="matrix(1,0,0,1,0,-9.699999809265137)"><tspan  dy="0">Prints reports via</tspan></text></g><g id="v-656"  label-idx="1" cursor="move" transform="matrix(1,0,0,1,1340,444.5)" style="cursor: default; opacity: 1;"><rect joint-selector="rect" id="v-660" fill="#ffffff" rx="3" ry="3"  width="0" height="0" transform="matrix(1,0,0,1,0,0)" display="none"></rect><text joint-selector="text" id="v-659" fill="#000000" font-size="14" text-anchor="middle" pointer-events="none"></text></g></g><g  display="none"></g><g  id="v-665" display="none"><g  id="v-653"><path  end="source" d="M 26 0 L 0 13 L 26 26 z"></path></g><g  id="v-654"><path  end="target" d="M 26 0 L 0 13 L 26 26 z"></path></g></g><g  id="v-664" display="none"><g  id="v-652" transform="translate(1757.2921340899813, 288.3460424288268) "><g  event="remove"><circle r="11"></circle><path transform="scale(.8) translate(-16, -16)" d="M24.778,21.419 19.276,15.917 24.777,10.415 21.949,7.585 16.447,13.087 10.945,7.585 8.117,10.415 13.618,15.917 8.116,21.419 10.946,24.248 16.447,18.746 21.948,24.248z"></path><title>Remove link.</title></g><g  event="link:options"><circle r="11" transform="translate(25)"></circle><path fill="white" transform="scale(.55) translate(29, -16)" d="M31.229,17.736c0.064-0.571,0.104-1.148,0.104-1.736s-0.04-1.166-0.104-1.737l-4.377-1.557c-0.218-0.716-0.504-1.401-0.851-2.05l1.993-4.192c-0.725-0.91-1.549-1.734-2.458-2.459l-4.193,1.994c-0.647-0.347-1.334-0.632-2.049-0.849l-1.558-4.378C17.165,0.708,16.588,0.667,16,0.667s-1.166,0.041-1.737,0.105L12.707,5.15c-0.716,0.217-1.401,0.502-2.05,0.849L6.464,4.005C5.554,4.73,4.73,5.554,4.005,6.464l1.994,4.192c-0.347,0.648-0.632,1.334-0.849,2.05l-4.378,1.557C0.708,14.834,0.667,15.412,0.667,16s0.041,1.165,0.105,1.736l4.378,1.558c0.217,0.715,0.502,1.401,0.849,2.049l-1.994,4.193c0.725,0.909,1.549,1.733,2.459,2.458l4.192-1.993c0.648,0.347,1.334,0.633,2.05,0.851l1.557,4.377c0.571,0.064,1.148,0.104,1.737,0.104c0.588,0,1.165-0.04,1.736-0.104l1.558-4.377c0.715-0.218,1.399-0.504,2.049-0.851l4.193,1.993c0.909-0.725,1.733-1.549,2.458-2.458l-1.993-4.193c0.347-0.647,0.633-1.334,0.851-2.049L31.229,17.736zM16,20.871c-2.69,0-4.872-2.182-4.872-4.871c0-2.69,2.182-4.872,4.872-4.872c2.689,0,4.871,2.182,4.871,4.872C20.871,18.689,18.689,20.871,16,20.871z"></path><title>Link options.</title></g></g></g></g><!--z-index:40--></g><g ></g><g ></g><g ></g></g></svg>